
		<svg xmlns="http://www.w3.org/2000/svg" xmlns:xlink="http://www.w3.org/1999/xlink" version="1.1" width="3200.6688963210704" height="1234.1137123745818">
			
			<g transform="scale(10.033444816053512) translate(10, 10)">
				<defs xmlns="http://www.w3.org/2000/svg" id="SvgjsDefs2473" /><g xmlns="http://www.w3.org/2000/svg" id="SvgjsG2474" fill="#ffffff" transform="matrix(1 0 0 1 0 0)" featureKey="root" /><g xmlns="http://www.w3.org/2000/svg" id="SvgjsG2475" fill="#ffffff" featureKey="container1"><path fill-rule="evenodd" d="M 0 0" /></g><g xmlns="http://www.w3.org/2000/svg" id="SvgjsG2476" fill="#000000" transform="matrix(0.701815 0 0 0.701815 4.49056 0.545636)" featureKey="symbol1"><path style="" fill="#000" stroke="none" d="M 98.623 20.5957 C 97.5559 20.5941 96.4754 20.725 95.4004 21 C 92.8004 21.7 90.4992 23.1992 88.6992 25.1992 L 85 29.3008 C 78.6 25.9008 71.4 24 64 24 C 56.6 24 49.4004 25.9004 42.9004 29.4004 L 39.1992 25.3008 C 37.3992 23.3008 35.1 21.7996 32.5 21.0996 C 28.2 19.9996 23.7996 21.2 20.5996 24 C 17.8996 26.4 16.4008 29.7008 16.3008 33.3008 C 16.2008 36.7008 17.6004 40.0996 19.9004 42.5996 L 24.8008 48 C 23.7008 50.2 22.8 52.4008 22 54.8008 C 21.8 55.3008 21.7 55.9004 21.5 56.4004 C 21.5 56.5004 21.5004 56.4996 21.4004 56.5996 C 21.3004 57.0996 21.2 57.5996 21 58.0996 C 21 58.1996 20.9004 58.3004 20.9004 58.4004 C 20.8004 58.9004 20.6996 59.3008 20.5996 59.8008 C 20.5996 59.9008 20.5 60.0992 20.5 60.1992 L 20.1992 62 L 15 100.301 C 14.8 101.901 15.8004 103.501 17.4004 103.801 C 19.1004 104.101 20.7004 103.001 20.9004 101.301 L 26.0996 62.8008 C 26.1996 61.9008 26.3996 60.9996 26.5996 60.0996 C 26.5996 59.8996 26.6992 59.7996 26.6992 59.5996 L 27.3008 57.1992 C 27.4008 56.9992 27.4 56.7996 27.5 56.5996 C 27.7 56.0996 27.8 55.5 28 55 C 28.2 54.5 28.3 54.0996 28.5 53.5996 C 28.7 53.0996 28.8992 52.5996 29.1992 52.0996 L 29.8008 50.9004 C 30.0008 50.6004 30.2008 50.2004 30.3008 49.9004 C 30.4008 49.6004 30.5992 49.3996 30.6992 49.0996 C 30.6992 48.9996 30.8008 49.0004 30.8008 48.9004 C 32.3008 46.4004 33.9996 44.0008 36.0996 41.8008 C 37.1996 40.6008 37.2992 38.7996 36.1992 37.5996 C 34.9992 36.2996 33.0008 36.2996 31.8008 37.5996 C 30.3008 39.1996 28.8992 40.8996 27.6992 42.5996 L 24 38.5 C 22.9 37.2 22.1 35.6004 22 33.9004 C 21.9 31.8004 22.8008 29.8004 24.3008 28.4004 C 26.1008 26.7004 28.7992 26.2 31.1992 27 C 32.3992 27.4 33.4008 28.1996 34.3008 29.0996 L 39.6992 35.0996 C 40.6992 36.1996 42.3 36.3996 43.5 35.5996 C 50 31.9996 56.9 30 64 30 C 64.5 30 65.0996 29.9996 65.5996 30.0996 C 75.7996 33.0996 84.1008 39.6992 89.8008 51.6992 C 94.2008 61.0992 95.6004 71.6004 94.4004 81.9004 L 91.5996 104.699 C 91.2996 106.799 93.3004 108.5 95.4004 108 C 101 106.5 110.201 104 110.301 104 C 111.501 103.7 113.2 102.8 112.9 100.6 L 107.699 62.0996 L 107.4 60.3008 C 107.4 60.2008 107.401 60.1 107.301 60 L 107 58.5 C 107 58.4 107 58.2992 106.9 58.1992 C 106.8 57.6992 106.7 57.1996 106.5 56.5996 L 106.5 56.5 C 105.7 53.5 104.599 50.7 103.199 48 L 108.1 42.5 C 110.2 40.2 111.5 37.2992 111.6 34.1992 C 111.8 30.1992 110.201 26.5004 107.301 23.9004 C 104.901 21.8004 101.825 20.6004 98.623 20.5957 Z M 44 66.0996 C 42.3 66.0996 41 67.3996 41 69.0996 C 41 70.7996 42.3 72.0996 44 72.0996 L 49 72.0996 C 50.7 72.0996 52 70.7996 52 69.0996 C 52 67.3996 50.7 66.0996 49 66.0996 L 44 66.0996 Z M 79 66.0996 C 77.3 66.0996 76 67.3996 76 69.0996 C 76 70.7996 77.3 72.0996 79 72.0996 L 84 72.0996 C 85.7 72.0996 87 70.7996 87 69.0996 C 87 67.3996 85.7 66.0996 84 66.0996 L 79 66.0996 Z M 64 66.1992 C 59.8 66.1992 55.8992 68.7004 54.1992 72.4004 L 42.9004 96.3008 C 41.5004 99.3008 41.5 102.801 43 105.801 L 46.8008 113.4 C 50.1008 119.9 56.6 124 64 124 C 71.3 124 77.8992 119.9 81.1992 113.4 L 85 105.801 C 86.5 102.801 86.4996 99.3008 85.0996 96.3008 L 73.8008 72.4004 C 72.0008 68.6004 68.2 66.1992 64 66.1992 Z M 63.9004 72.0996 C 64.2004 72.0996 64.6004 72.0992 64.9004 72.1992 L 69.4004 86 C 70.4004 89.3 70.9004 92.6 70.9004 96 C 65.1004 92.1 56.3004 93.7004 52.9004 100.9 L 56.5996 108.301 C 57.7996 110.801 60.2 112.6 63 113 C 64.1 113.1 65.0996 113.001 66.0996 112.801 C 64.9996 114.601 63.6992 116.301 62.1992 117.801 L 62.0996 117.9 C 57.8996 117.3 54.2008 114.701 52.3008 110.801 L 48.5 103.199 C 47.7 101.699 47.7008 100.201 48.3008 98.8008 L 59.5 74.9004 C 60.3 73.2004 62.0004 72.0996 63.9004 72.0996 Z" /></g><g xmlns="http://www.w3.org/2000/svg" id="SvgjsG2477" fill="#000000" transform="matrix(2.00505 0 0 2.00505 99.6268 -6.20836)" featureKey="text1"><path d="M -0.3125 10.6054 q 0 -0.517578 0.380859 -0.800781 q 0.302734 -0.224609 0.703125 -0.224609 q 1.17188 0 2.67578 1.46484 l 1.123 -0.058594 q 2.46094 -0.117188 3.87695 -0.117188 q 2.06055 0 2.06055 1.21094 q 0 0.439453 -0.429688 0.712891 q -0.371094 0.253906 -0.810547 0.253906 q -0.244141 0 -0.380859 -0.078125 q 0.800781 -0.751953 0.800781 -0.605469 q 0 -0.283203 -0.859375 -0.283203 q -0.576172 0 -2.24609 0.136719 q -1.86523 0.126953 -2.45117 0.126953 l -0.019531 0 q 0.839844 1.72852 0.9375 4.67773 l 3.7109 0.058594 q 0.673828 0 0.693359 0.849609 q 0 0.361328 -0.375977 0.390625 t -4.0088 -0.14648 q 0 2.63672 -0.615234 5.42969 q -0.136719 1.06445 -0.625 1.2793 q -0.585938 0.234375 -0.996094 0.263672 q -0.205078 0 -0.292969 -0.253906 q -0.0976563 -0.224609 -0.00976563 -0.410156 q 0.976563 -2.05078 1.05469 -6.91406 q -0.146484 -3.49609 -1.03516 -5.2832 q -2.86133 -0.273438 -2.86133 -1.67969 Z M 1.8066 11.1624 q -0.400391 -0.957031 -1.01563 -0.957031 q -0.361328 0 -0.361328 0.400391 q 0 0.253906 0.46875 0.419922 q 0.380859 0.136719 0.751953 0.136719 l 0.15625 0 Z M 13.584 17.1094 q 1.37695 -0.0292969 1.8457 0.488281 q 0.15625 0.253906 0.00976563 0.576172 q -0.341797 0.253906 -1.5625 0.253906 l -1.4063 0 q -0.244141 0.361328 -0.546875 1.99219 l 0.039063 0 q 1.57227 -0.126953 1.69922 -0.126953 q 0.683594 0.0292969 0.683594 0.458984 q -0.292969 0.634766 -1.2207 0.732422 q -0.742188 0.0683594 -1.41602 0.0878906 l -0.039063 0.9375 q 0.0585938 0.673828 0.595703 0.673828 q 2.1875 -0.107422 2.67578 -0.205078 q 0.214844 -0.00976563 0.214844 0.126953 q 0 0.771484 -2.59766 1.39648 q -0.390625 0.0878906 -0.761719 0.0878906 q -1.44531 0 -1.44531 -1.44531 q 0 -0.576172 0.214844 -1.73828 q -0.683594 -0.195313 -0.683594 -0.498047 q 0 -0.214844 0.849609 -0.351563 q 0.253906 -1.2793 0.556641 -2.16797 l -0.048828 0 q -0.976563 -0.0878906 -0.976563 -0.46875 q 0.0585938 -0.615234 3.32031 -0.810547 Z M 17.7832 24.3262 q -1.01563 0 -1.25977 -3.32031 q -0.341797 -0.283203 -0.341797 -0.517578 q 0 -0.371094 0.175781 -0.341797 q 0.0488281 0.0195313 0.126953 0.0195313 q 0 -1.48438 0.332031 -2.20703 q 0.419922 -0.9375 1.52344 -1.03516 q 0.205078 -0.0195313 1.62109 -0.0195313 q 1.12305 0 1.98242 0.361328 q 1.16211 0.488281 1.16211 1.45508 q 0 1.26953 -2.22656 2.04102 q -0.224609 0.0878906 -1.09375 0.224609 q 0.966797 0.498047 2.59766 2.23633 q 0.322266 0.361328 0.322266 0.800781 q 0 0.556641 -0.361328 0.556641 q -0.185547 0 -0.322266 -0.0976563 q -3.0957 -3.02734 -4.0918 -2.69531 q 0.0195313 0.751953 0.390625 1.79688 q 0.136719 0.742188 -0.537109 0.742188 Z M 17.7636 20.3418 q 1.46484 -0.195313 2.76367 -0.712891 t 1.2988 -0.91797 q 0 -0.654297 -1.48438 -0.654297 q -1.50391 0 -2.45117 0.078125 q -0.126953 0.634766 -0.126953 1.89453 l 0 0.3125 Z M 26.5429 10.9964 q 1.41602 0 1.66016 0.722656 q 1.49414 0 1.49414 1.13281 q 0 1.11328 -1.94336 2.22656 q -1.05469 0.527344 -2.25586 0.527344 q -0.654297 0 -1.49414 -0.244141 q -0.410156 0.605469 -0.732422 0.605469 q -0.107422 -0.0292969 -0.117188 -0.205078 q 0 -0.292969 0.244141 -0.888672 q -0.488281 -0.410156 -0.488281 -1.17188 q 0 -1.55273 2.22656 -2.5 q 0.615234 -0.205078 1.40625 -0.205078 Z M 24.1211 13.9064 q 1.5332 -1.49414 2.7832 -1.79688 q -2.43164 -0.175781 -2.82227 1.43555 q -0.0488281 0.253906 0.0390625 0.361328 Z M 24.8046 14.6289 q 0.175781 0.126953 1.01563 0.205078 q 1.74805 0 2.91016 -1.49414 q 0.117188 -0.175781 0.117188 -0.449219 q 0 -0.322266 -0.322266 -0.322266 q -1.23047 0 -3.59375 1.9043 Z M 24.8925 16.9336 q 0.585938 0 0.644531 2.01172 q 0 5.01953 -0.849609 5.01953 q -0.634766 0 -0.722656 -2.42188 q 0 -2.40234 0.722656 -4.44336 q 0.0683594 -0.117188 0.205078 -0.166016 Z M 30.3516 17.1094 q 1.37695 -0.0292969 1.8457 0.488281 q 0.15625 0.253906 0.00976563 0.576172 q -0.341797 0.253906 -1.5625 0.253906 l -1.4063 0 q -0.244141 0.361328 -0.546875 1.99219 l 0.039063 0 q 1.57227 -0.126953 1.69922 -0.126953 q 0.683594 0.0292969 0.683594 0.458984 q -0.292969 0.634766 -1.2207 0.732422 q -0.742188 0.0683594 -1.41602 0.0878906 l -0.039063 0.9375 q 0.0585938 0.673828 0.595703 0.673828 q 2.1875 -0.107422 2.67578 -0.205078 q 0.214844 -0.00976563 0.214844 0.126953 q 0 0.771484 -2.59766 1.39648 q -0.390625 0.0878906 -0.761719 0.0878906 q -1.44531 0 -1.44531 -1.44531 q 0 -0.576172 0.214844 -1.73828 q -0.683594 -0.195313 -0.683594 -0.498047 q 0 -0.214844 0.849609 -0.351563 q 0.253906 -1.2793 0.556641 -2.16797 l -0.048828 0 q -0.976563 -0.0878906 -0.976563 -0.46875 q 0.0585938 -0.615234 3.32031 -0.810547 Z M 37.5684 16.3281 q 0.673828 0 1.25 2.07031 q 0.117188 0.595703 0.117188 1.42578 q 0 4.08203 -1.11328 4.08203 q -0.644531 0 -2.44141 -2.8125 q -0.78125 -1.15234 -0.976563 -1.25 q -0.244141 3.39844 -0.341797 3.76953 q -0.0390625 0.107422 -0.166016 0.0976563 q -0.820313 -0.371094 -0.820313 -1.26953 q 0 -3.36914 0.9375 -4.66797 q 0.117188 -0.136719 0.273438 -0.0390625 q 0.751953 0.625 1.64063 2.14844 q 0.849609 1.33789 1.5625 2.10938 q 0.380859 0 0.390625 -2.26563 q 0 -2.14844 -0.400391 -3.30078 q -0.0390625 -0.0976563 0.0878906 -0.0976563 Z M 42.2754 23.3691 q -0.517578 0.175781 -0.898438 0.175781 q -0.820313 0 -1.30859 -0.517578 t -0.48828 -1.4063 q 0 -2.08008 1.34766 -3.33008 q 1.29883 -1.06445 1.57715 -0.874023 t 0.16113 0.54199 q -2.09961 1.32813 -2.09961 3.25195 q 0 1.41602 1.11328 1.41602 l 0.13672 0 q -0.214844 -0.810547 -0.214844 -1.38672 q 0 -0.898438 0.556641 -1.58203 q 0.615234 -0.751953 1.54297 -0.751953 q 0.546875 0 0.859375 0.419922 q 0.302734 0.400391 0.302734 0.996094 q 0 1.43555 -1.77734 2.59766 q 0.185547 0.341797 1.12305 0.341797 q 1.09375 -0.0976563 1.56738 -0.981445 t 0.37598 -2.5928 q -0.0976563 -1.64063 -1.18164 -2.74414 q -0.292969 -0.488281 0.302734 -0.478516 q 0.332031 0 0.986328 0.664063 q 1.08398 0.859375 1.08398 3.01758 q 0 1.72852 -0.810547 2.79297 q -0.898438 1.20117 -2.61719 1.20117 q -1.28906 0 -1.64063 -0.771484 Z M 42.5391 21.3867 q 0 0.595703 0.166016 0.849609 q 1.12305 -0.820313 1.21094 -2.01172 l 0 -0.048828 q 0 -0.410156 -0.371094 -0.419922 q -0.488281 0 -0.859375 0.839844 q -0.146484 0.458984 -0.146484 0.791016 Z M 51.8359 16.6699 q 1.82617 0 2.61719 2.56836 q 0.126953 0.517578 0.126953 1.17188 q 0 2.65625 -2.26563 3.45703 q -0.693359 0.185547 -1.44531 0.078125 q -2.90039 -0.3125 -2.90039 -3.18359 q 0 -2.19727 2.11914 -3.04688 q 0.537109 -1.04492 1.74805 -1.04492 Z M 50.3515 19.0918 q -0.136719 0 -0.195313 -0.478516 q -0.810547 0.380859 -0.810547 1.95313 q 0.0878906 2.54883 2.11914 2.54883 q 1.88477 0 1.99219 -2.5 q 0 -1.98242 -1.36719 -2.49023 q -0.371094 -0.146484 -0.756836 -0.00976563 t -0.61035 0.55664 t -0.37109 0.41992 Z M 58.5156 17.461 q 0 -0.439453 0.546875 -0.556641 q 0.332031 0 0.439453 0.0683594 t 0.15625 0.23926 t 0.068359 0.41504 l 0.15625 2.959 q 0 0.380859 0.12207 1.72852 t -0.10254 1.5918 q -0.292969 0.0976563 -0.458984 0.0976563 q -0.429688 0 -0.527344 -0.537109 l -0.078125 -1.7578 q -1.00586 0.136719 -2.48047 -0.0195313 q 0.0390625 0.673828 0.0390625 1.77734 q 0 0.292969 -0.107422 0.361328 q -0.0878906 0.0683594 -0.3125 0.117188 q -0.263672 0 -0.424805 -0.12207 t -0.32715 -0.69824 q -0.117188 -2.48047 0.0976563 -4.74609 q 0.0585938 -1.09375 0.761719 -1.09375 q 0.429688 0 0.332031 0.556641 q -0.0976563 0.849609 -0.0976563 1.66016 l 0 1.1133 q 0.625 0.107422 1.42578 0.107422 t 0.99609 -0.039063 Z M 65.1954 16.3281 q 0.673828 0 1.25 2.07031 q 0.117188 0.595703 0.117188 1.42578 q 0 4.08203 -1.11328 4.08203 q -0.644531 0 -2.44141 -2.8125 q -0.78125 -1.15234 -0.976563 -1.25 q -0.244141 3.39844 -0.341797 3.76953 q -0.0390625 0.107422 -0.166016 0.0976563 q -0.820313 -0.371094 -0.820313 -1.26953 q 0 -3.36914 0.9375 -4.66797 q 0.117188 -0.136719 0.273438 -0.0390625 q 0.751953 0.625 1.64063 2.14844 q 0.849609 1.33789 1.5625 2.10938 q 0.380859 0 0.390625 -2.26563 q 0 -2.14844 -0.400391 -3.30078 q -0.0390625 -0.0976563 0.0878906 -0.0976563 Z M 67.3047 21.1328 q 0.390625 -3.10547 1.92383 -4.57031 q 0.126953 -0.0976563 0.273438 -0.0976563 q 0.224609 0 0.283203 0.400391 q -0.917969 2.39258 -1.15234 3.79883 q -0.0878906 0.449219 -0.0878906 0.898438 q 0.0976563 1.14258 0.742188 1.14258 q 1.08398 0 2.09961 -3.76953 q 0.263672 -1.17188 0.615234 -1.17188 q 0.175781 0 0.341797 0.478516 q 0.390625 1.51367 0.673828 2.94922 t 0.39063 2.3242 q 0 0.546875 -0.625 0.546875 q -0.332031 0 -0.537109 -0.595703 t -0.38086 -2.8223 q -0.351563 1.66016 -1.25977 2.60742 q -0.761719 0.732422 -1.46484 0.732422 l -0.019531 0 q -1.09375 -0.0292969 -1.55273 -0.898438 q -0.361328 -0.771484 -0.263672 -1.95313 Z M 78.5059 16.3281 q 0.673828 0 1.25 2.07031 q 0.117188 0.595703 0.117188 1.42578 q 0 4.08203 -1.11328 4.08203 q -0.644531 0 -2.44141 -2.8125 q -0.78125 -1.15234 -0.976563 -1.25 q -0.244141 3.39844 -0.341797 3.76953 q -0.0390625 0.107422 -0.166016 0.0976563 q -0.820313 -0.371094 -0.820313 -1.26953 q 0 -3.36914 0.9375 -4.66797 q 0.117188 -0.136719 0.273438 -0.0390625 q 0.751953 0.625 1.64063 2.14844 q 0.849609 1.33789 1.5625 2.10938 q 0.380859 0 0.390625 -2.26563 q 0 -2.14844 -0.400391 -3.30078 q -0.0390625 -0.0976563 0.0878906 -0.0976563 Z M 85.0782 18.7598 q 0.292969 -0.820313 -0.302734 -0.820313 q -0.146484 0 -0.546875 0.0976563 q -2.50977 1.04492 -2.50977 3.33008 q 0 1.74805 2.08984 1.82617 q 2.03125 -0.078125 2.06055 -1.88477 q -1.66016 0.0976563 -1.80664 0.151367 t -0.3125 -0.18066 q -0.0878906 -0.214844 0.0195313 -0.395508 t 0.9082 -0.26855 t 1.4941 -0.10742 q 0.371094 0 0.566406 0.239258 t 0.19531 0.7666 q 0 1.16211 -0.805664 1.8457 t -2.5342 0.68359 q -3.0957 0 -3.0957 -2.71484 q 0 -1.79688 1.50391 -3.18359 q 1.34766 -1.2207 2.63672 -1.2207 q 1.50391 0 1.50391 0.996094 q 0 0.712891 -1.06445 0.839844 Z M 90.7519 17.1094 q 1.37695 -0.0292969 1.8457 0.488281 q 0.15625 0.253906 0.00976563 0.576172 q -0.341797 0.253906 -1.5625 0.253906 l -1.4063 0 q -0.244141 0.361328 -0.546875 1.99219 l 0.039063 0 q 1.57227 -0.126953 1.69922 -0.126953 q 0.683594 0.0292969 0.683594 0.458984 q -0.292969 0.634766 -1.2207 0.732422 q -0.742188 0.0683594 -1.41602 0.0878906 l -0.039063 0.9375 q 0.0585938 0.673828 0.595703 0.673828 q 2.1875 -0.107422 2.67578 -0.205078 q 0.214844 -0.00976563 0.214844 0.126953 q 0 0.771484 -2.59766 1.39648 q -0.390625 0.0878906 -0.761719 0.0878906 q -1.44531 0 -1.44531 -1.44531 q 0 -0.576172 0.214844 -1.73828 q -0.683594 -0.195313 -0.683594 -0.498047 q 0 -0.214844 0.849609 -0.351563 q 0.253906 -1.2793 0.556641 -2.16797 l -0.048828 0 q -0.976563 -0.0878906 -0.976563 -0.46875 q 0.0585938 -0.615234 3.32031 -0.810547 Z M 97.9688 16.3281 q 0.673828 0 1.25 2.07031 q 0.117188 0.595703 0.117188 1.42578 q 0 4.08203 -1.11328 4.08203 q -0.644531 0 -2.44141 -2.8125 q -0.78125 -1.15234 -0.976563 -1.25 q -0.244141 3.39844 -0.341797 3.76953 q -0.0390625 0.107422 -0.166016 0.0976563 q -0.820313 -0.371094 -0.820313 -1.26953 q 0 -3.36914 0.9375 -4.66797 q 0.117188 -0.136719 0.273438 -0.0390625 q 0.751953 0.625 1.64063 2.14844 q 0.849609 1.33789 1.5625 2.10938 q 0.380859 0 0.390625 -2.26563 q 0 -2.14844 -0.400391 -3.30078 q -0.0390625 -0.0976563 0.0878906 -0.0976563 Z" /></g><g xmlns="http://www.w3.org/2000/svg" id="SvgjsG2478" fill="#000000" transform="matrix(2.15772 0 0 2.15772 101.107 33.5396)" featureKey="text2"><path d="M 2.8027 16.0449 q -0.078125 -2.55859 -0.839844 -2.90039 q -1.52344 1.06445 -2.11914 1.96289 q -0.224609 0.400391 -0.400391 0.400391 q -0.419922 0 -0.419922 -0.458984 q 0 -0.224609 0.078125 -0.46875 q 1.30859 -1.61133 3.79883 -3.13477 q 3.18359 -1.96289 5.92773 -1.96289 q 1.51367 0 2.7832 0.625 q 1.51367 0.732422 1.51367 2.61719 q 0 1.37695 -1.37695 3.05664 q 0.976563 0.566406 1.69922 1.52344 q 0.820313 1.09375 0.820313 2.09961 q 0 2.76367 -2.69531 4.12109 q -2.09961 1.05469 -5.24414 1.05469 q -3.64258 0 -3.64258 -1.81641 q 0.195313 -4.16016 0.117188 -6.71875 Z M 6.748 23.2617 q 2.01172 -0.0195313 3.82813 -0.810547 q 2.25586 -0.996094 2.25586 -3.19336 q 0 -0.771484 -0.244141 -1.19141 q -0.400391 -0.664063 -1.60156 -1.18164 q -0.78125 0.78125 -1.2793 1.07422 q -1.25977 0.761719 -2.02148 1.01563 q -1.36719 0.556641 -3.18359 0.566406 l -0.087891 3.1152 q 0.195313 0.605469 2.33398 0.605469 Z M 4.2969 15.7227 q 1.88477 -0.654297 4.0625 -0.654297 q 1.44531 0 2.32422 0.341797 q 1.29883 -1.19141 1.29883 -2.77344 q 0 -1.06445 -1.07422 -1.57227 q -0.800781 -0.380859 -2.01172 -0.380859 q -1.79688 0 -3.82813 0.732422 q -1.78711 0.722656 -1.78711 0.966797 q 0.517578 0.576172 1.01563 3.33984 Z M 4.4043 18.3399 q 0.908203 0.273438 2.91504 -0.458984 t 2.5537 -1.4063 q -0.820313 -0.322266 -2.00195 -0.322266 q -1.05469 0 -2.62695 0.585938 q -0.546875 0.214844 -0.859375 0.615234 Z M 16.4844 16.6016 q 0.234375 0.00976563 0.195313 0.322266 q -0.605469 4.26758 -0.625 5.80078 q 0.537109 0 2.49023 -0.361328 q 0.0878906 0 0.0878906 0.205078 q 0 0.878906 -1.73828 1.36719 q -0.283203 0.0488281 -0.849609 0.0488281 q -1.25977 0 -1.26953 -1.50391 q 0 -2.5 1.37695 -5.67383 q 0.0976563 -0.205078 0.332031 -0.205078 Z M 22.7636 16.3281 q 0.507813 0 1.04492 3.89648 q 0.566406 3.00781 0.566406 3.84766 q 0 0.117188 -0.166016 0.117188 q -0.605469 -0.0488281 -0.800781 -0.917969 l -0.32227 -1.3281 q -0.986328 0.126953 -2.36328 0.0878906 q -0.712891 2.28516 -0.927734 2.36328 q -0.0976563 0.0488281 -0.195313 0 q -0.625 -0.419922 -0.527344 -1.24023 q 0 -0.166016 0.361328 -1.57227 q -0.439453 -0.244141 -0.439453 -1.04492 q 0 -0.078125 0.0439453 -0.0927734 t 0.073242 0.014648 q 0.292969 0.283203 0.683594 0.283203 q 1.29883 -2.99805 2.33398 -4.13086 q 0.283203 -0.283203 0.634766 -0.283203 Z M 21.123 20.9473 l 1.8066 -0.048828 q -0.458984 -2.88086 -0.566406 -2.88086 q -0.283203 0.185547 -1.24023 2.92969 Z M 30.9864 22.8809 q 0 1.10352 -3.14453 1.10352 q -2.93945 0 -2.93945 -2.67578 q 0 -1.69922 1.16211 -2.97852 q 1.25977 -1.38672 3.19336 -1.38672 q 0.527344 0 1.08398 0.244141 t 0.47363 0.66895 t -0.7373 0.24902 q -2.04102 -0.273438 -3.06641 0.957031 q -0.9375 1.13281 -0.9375 2.30469 q 0 1.39648 1.89453 1.5918 q 0.908203 0 1.4209 -0.0732422 t 1.0547 -0.36621 t 0.54199 0.36133 Z M 32.3438 16.9239 q 0.605469 0 0.605469 2.32422 q 0 0.380859 -0.0195313 0.888672 q 1.66016 -1.23047 3.33008 -2.94922 q 0.166016 -0.107422 0.283203 -0.107422 q 0.380859 -0.0292969 0.458984 0.302734 t -0.15625 0.53711 q -1.36719 1.46484 -3.20313 2.97852 q 1.5332 2.00195 3.33984 1.86523 q 0.302734 0.078125 0.302734 0.634766 t -0.56641 0.60547 q -1.9043 0.117188 -3.78906 -2.36328 l 0.097656 1.9238 q -0.0585938 0.458984 -0.605469 0.458984 q -0.341797 0 -0.512695 -0.214844 t -0.1709 -0.74219 q -0.078125 -2.26563 -0.078125 -3.52539 l -0.039063 -2.1582 q 0 -0.458984 0.722656 -0.458984 Z M 44.4238 15.6641 q 0.0585938 -0.0195313 0.195313 -0.0195313 q 0.205078 0 0.283203 0.078125 q 0.0585938 0.15625 0.0585938 0.517578 q 0 0.878906 -0.244141 1.02539 q -0.449219 -0.0976563 -1.05469 -0.0976563 q -0.517578 0 -1.5625 0.117188 l 0 0.26367 q 0 1.12305 0.322266 2.13867 l 0.039063 0.19531 q 0 0.322266 -0.458984 0.322266 q -0.419922 0 -0.78125 -0.15625 q -0.224609 -0.0683594 -0.283203 -0.283203 q -0.214844 -1.02539 -0.214844 -2.36328 l -0.24414 0 q -1.10352 0 -1.98242 -0.361328 q -0.576172 -0.214844 -0.576172 -0.878906 q 0 -0.644531 0.439453 -0.78125 l 0 0.039063 q 0 0.107422 0.302734 0.205078 q 0.908203 0.380859 2.09961 0.380859 q 0.0390625 -0.839844 0.0390625 -1.31836 q 0 -0.341797 -0.0390625 -1.14258 q 0.0585938 -0.175781 0.800781 -0.175781 l 0.27344 0 q 0.419922 0 0.419922 0.136719 l 0 0.019531 q 0.0195313 0.234375 0.0195313 0.722656 q 0 0.595703 -0.078125 1.64063 q 1.44531 -0.205078 2.20703 -0.224609 l 0.019531 0 Z M 45.5273 10.6054 q 0 -0.517578 0.380859 -0.800781 q 0.302734 -0.224609 0.703125 -0.224609 q 1.17188 0 2.67578 1.46484 l 1.123 -0.058594 q 2.46094 -0.117188 3.87695 -0.117188 q 2.06055 0 2.06055 1.21094 q 0 0.439453 -0.429688 0.712891 q -0.371094 0.253906 -0.810547 0.253906 q -0.244141 0 -0.380859 -0.078125 q 0.800781 -0.751953 0.800781 -0.605469 q 0 -0.283203 -0.859375 -0.283203 q -0.576172 0 -2.24609 0.136719 q -1.86523 0.126953 -2.45117 0.126953 l -0.019531 0 q 0.839844 1.72852 0.9375 4.67773 l 3.7109 0.058594 q 0.673828 0 0.693359 0.849609 q 0 0.361328 -0.375977 0.390625 t -4.0088 -0.14648 q 0 2.63672 -0.615234 5.42969 q -0.136719 1.06445 -0.625 1.2793 q -0.585938 0.234375 -0.996094 0.263672 q -0.205078 0 -0.292969 -0.253906 q -0.0976563 -0.224609 -0.00976563 -0.410156 q 0.976563 -2.05078 1.05469 -6.91406 q -0.146484 -3.49609 -1.03516 -5.2832 q -2.86133 -0.273438 -2.86133 -1.67969 Z M 47.6464 11.1624 q -0.400391 -0.957031 -1.01563 -0.957031 q -0.361328 0 -0.361328 0.400391 q 0 0.253906 0.46875 0.419922 q 0.380859 0.136719 0.751953 0.136719 l 0.15625 0 Z M 59.9316 16.6699 q 1.82617 0 2.61719 2.56836 q 0.126953 0.517578 0.126953 1.17188 q 0 2.65625 -2.26563 3.45703 q -0.693359 0.185547 -1.44531 0.078125 q -2.90039 -0.3125 -2.90039 -3.18359 q 0 -2.19727 2.11914 -3.04688 q 0.537109 -1.04492 1.74805 -1.04492 Z M 58.4472 19.0918 q -0.136719 0 -0.195313 -0.478516 q -0.810547 0.380859 -0.810547 1.95313 q 0.0878906 2.54883 2.11914 2.54883 q 1.88477 0 1.99219 -2.5 q 0 -1.98242 -1.36719 -2.49023 q -0.371094 -0.146484 -0.756836 -0.00976563 t -0.61035 0.55664 t -0.37109 0.41992 Z M 64.7852 24.3262 q -1.01563 0 -1.25977 -3.32031 q -0.341797 -0.283203 -0.341797 -0.517578 q 0 -0.371094 0.175781 -0.341797 q 0.0488281 0.0195313 0.126953 0.0195313 q 0 -1.48438 0.332031 -2.20703 q 0.419922 -0.9375 1.52344 -1.03516 q 0.205078 -0.0195313 1.62109 -0.0195313 q 1.12305 0 1.98242 0.361328 q 1.16211 0.488281 1.16211 1.45508 q 0 1.26953 -2.22656 2.04102 q -0.224609 0.0878906 -1.09375 0.224609 q 0.966797 0.498047 2.59766 2.23633 q 0.322266 0.361328 0.322266 0.800781 q 0 0.556641 -0.361328 0.556641 q -0.185547 0 -0.322266 -0.0976563 q -3.0957 -3.02734 -4.0918 -2.69531 q 0.0195313 0.751953 0.390625 1.79688 q 0.136719 0.742188 -0.537109 0.742188 Z M 64.7656 20.3418 q 1.46484 -0.195313 2.76367 -0.712891 t 1.2988 -0.91797 q 0 -0.654297 -1.48438 -0.654297 q -1.50391 0 -2.45117 0.078125 q -0.126953 0.634766 -0.126953 1.89453 l 0 0.3125 Z M 73.9746 17.1094 q 1.37695 -0.0292969 1.8457 0.488281 q 0.15625 0.253906 0.00976563 0.576172 q -0.341797 0.253906 -1.5625 0.253906 l -1.4063 0 q -0.244141 0.361328 -0.546875 1.99219 l 0.039063 0 q 1.57227 -0.126953 1.69922 -0.126953 q 0.683594 0.0292969 0.683594 0.458984 q -0.292969 0.634766 -1.2207 0.732422 q -0.742188 0.0683594 -1.41602 0.0878906 l -0.039063 0.9375 q 0.0585938 0.673828 0.595703 0.673828 q 2.1875 -0.107422 2.67578 -0.205078 q 0.214844 -0.00976563 0.214844 0.126953 q 0 0.771484 -2.59766 1.39648 q -0.390625 0.0878906 -0.761719 0.0878906 q -1.44531 0 -1.44531 -1.44531 q 0 -0.576172 0.214844 -1.73828 q -0.683594 -0.195313 -0.683594 -0.498047 q 0 -0.214844 0.849609 -0.351563 q 0.253906 -1.2793 0.556641 -2.16797 l -0.048828 0 q -0.976563 -0.0878906 -0.976563 -0.46875 q 0.0585938 -0.615234 3.32031 -0.810547 Z M 80.8204 17.1094 q 2.5 0.0585938 2.5 0.507813 q 0.00976563 0.595703 -2.22656 0.664063 q -3.16406 0 -3.20313 0.546875 q 0 0.283203 3.39844 0.976563 q 2.14844 0.46875 2.14844 1.71875 q 0 1.42578 -2.65625 1.99219 q -0.410156 0.078125 -0.898438 0.078125 q -2.42188 0 -3.39844 -1.21094 q -0.117188 -0.244141 -0.117188 -0.429688 q 0 -0.800781 2.28516 -0.9375 q 1.97266 0.0878906 1.97266 0.664063 q 0 0.292969 -1.17188 0.351563 q -1.75781 -0.0390625 -1.93359 -0.0195313 t -0.17578 0.097656 q 0.136719 0.419922 2.26563 0.507813 q 2.53906 -0.0390625 2.53906 -1.03516 q 0 -0.771484 -3.75 -1.46484 q -1.03516 -0.224609 -1.41113 -0.581055 t -0.38574 -0.74707 q 0 -0.908203 1.97266 -1.44531 q 1.02539 -0.234375 2.24609 -0.234375 Z M 84.9707 16.1328 q 0.166016 0 0.151367 0.112305 t -0.073242 0.22949 q -0.0683594 0.146484 -0.0292969 0.302734 q 0.195313 0.712891 2.57813 0.898438 q 1.13281 -1.30859 2.80273 -1.30859 q 1.2207 0.126953 1.2207 1.04492 q -0.0292969 1.37695 -3.41797 1.5332 q -1.03516 3.42773 -1.03516 6.20117 q 0 0.683594 -0.273438 0.683594 q -1.01563 0.0390625 -1.08398 -2.20703 q 0 -2.31445 1.03516 -4.72656 q -1.57227 -0.214844 -2.43164 -0.751953 q -0.566406 -0.351563 -0.566406 -0.830078 q 0 -0.947266 1.12305 -1.18164 Z M 88.9062 17.6758 q 1.37695 0 1.64063 -0.605469 q -0.0292969 -0.136719 -0.332031 -0.136719 q -0.693359 0 -1.30859 0.742188 Z" /></g>
			</g>
		</svg>
	