
		<svg xmlns="http://www.w3.org/2000/svg" xmlns:xlink="http://www.w3.org/1999/xlink" version="1.1" width="3162.6016260162605" height="1536.5853658536585">
			
			<g transform="scale(8.130081300813009) translate(10, 10)">
				<defs xmlns="http://www.w3.org/2000/svg" id="SvgjsDefs3061"/><g xmlns="http://www.w3.org/2000/svg" id="SvgjsG3062" fill="#000" transform="matrix(1 0 0 1 0 0)" featureKey="root"/><g xmlns="http://www.w3.org/2000/svg" id="SvgjsG3063" fill="#000" featureKey="container1"><path fill-rule="evenodd" d="M 0 0"/></g><g xmlns="http://www.w3.org/2000/svg" id="SvgjsG3064" fill="#000" transform="matrix(0.419137 0 0 0.419137 14.2359 -7.58439)" featureKey="symbol1"><path d="M 289.708 101.782 c 0.107 0.094 0.244 0.215 0.338 0.283 c 0.229 -0.039 0.766 -0.134 1.5 -0.262 c 0.449 -0.079 0.973 -0.17 1.555 -0.271 c 1.471 -12.491 11.021 -22.504 23.285 -24.676 c -2.988 -1.038 -6.193 -1.609 -9.535 -1.609 c -15 0 -27.344 11.361 -28.9 25.947 c 3.518 -0.308 6.813 -0.61 7.822 -0.748 C 287.881 100.162 289.036 101.195 289.708 101.782 Z"/><path d="M 289.465 109.826 l -0.1 0 c -2.389 0 -5.859 -1.301 -6.91 -1.719 c -0.658 0.057 -2.297 0.199 -4.373 0.379 c 2.023 14.078 14.129 24.899 28.768 24.899 c 2.523 0 4.971 -0.322 7.307 -0.927 c -10.691 -2.796 -18.934 -11.647 -20.842 -22.67 c -0.91 0.018 -1.83 0.027 -2.754 0.03 C 290.124 109.82 289.752 109.822 289.465 109.826 Z"/><path d="M 232.258 103.389 c 0 0 24.463 -3.149 30.445 -3.276 c 5.98 -0.127 4.936 3.276 4.936 3.276 s 15.818 -1.299 18.309 -1.638 c 2.492 -0.338 2.984 1.781 4.115 1.638 s 14.479 -2.733 18.719 -2.355 c 4.242 0.378 10.561 2.663 10.561 2.663 s 30.875 2.172 35.277 3.093 c 4.401 0.921 -17.999 0.988 -17.999 0.988 s -29.058 -2.488 -32.364 -0.805 c -3.305 1.683 -12.27 1.499 -14.811 1.536 c -2.543 0.038 -6.789 -1.741 -6.789 -1.741 s -17.127 1.484 -20.16 1.741 c -3.031 0.257 -5.623 -3.065 -9.068 -2.268 c -3.443 0.797 -12.051 2.23 -21.17 2.268 c -9.121 0.038 -14.813 -2.765 -14.813 -2.765 s 19.02 0.442 14.605 -0.902 C 227.637 103.498 232.258 103.389 232.258 103.389 Z"/><path d="M 315.581 117.532 l 16.768 -1.396 l 2.72 1.396 l 10.083 -0.698 l 2.266 0.698 l 10.31 -1.002 l 5.816 1.134 c 0 0 8.725 0.916 13.861 0.785 c 5.135 -0.13 10.912 1.526 -3.816 1.701 c -14.729 0.174 -18.354 -1.091 -18.354 -1.091 l -8.158 0.655 l -3.738 -0.741 l -11.104 0.741 l -1.586 -0.698 l -15.067 0.698 l -8.158 -1.178 l 8.043 -0.385 L 315.581 117.532 Z"/><path d="M 284.258 196.449 c -0.961 -0.793 0.713 0.141 -2.064 -1.461 c -2.775 -1.6 -5.154 -0.805 -5.154 -0.805 s 2.457 -2.463 1.146 -2.722 c -1.309 -0.258 -8.168 0.707 -8.168 0.707 s 5.51 -2.283 4.012 -2.838 c -1.498 -0.554 -2.309 -0.827 -3.568 -0.704 c -1.26 0.124 -1.992 0.078 -2.943 1.152 c -0.949 1.077 -4.438 2.495 -4.438 2.495 s 3.801 -4.935 2.613 -4.539 c -1.189 0.398 -4.203 0.647 -4.203 0.647 l -5.35 4.628 l 2.457 -3.726 c 0 0 -2.736 0.724 -4.162 1.706 s -6.18 5.938 -6.18 5.938 s 4.58 -5.763 0.564 -2.904 c -2.213 1.574 -4.471 4.2 -6.057 6.244 c 0.473 -2.931 0.811 -6.378 0.344 -8.732 c -0.961 -4.867 -1.623 2.636 -1.623 2.636 s -0.033 -6.987 -0.398 -8.689 c -0.365 -1.703 -1.879 -4.063 -1.879 -4.063 l -0.803 4.52 l -0.705 -7.123 c 0 0 -2.053 -2.172 -2.654 -3.263 c -0.6 -1.089 -1.258 5.255 -1.258 5.255 s -1.584 -3.395 -1.529 -4.859 c 0.053 -1.462 -0.521 -1.908 -1.367 -2.831 c -0.846 -0.922 -1.637 -1.242 -3.135 -1.793 c -1.5 -0.552 0.973 4.847 0.973 4.847 s -4.396 -5.255 -5.547 -5.914 c -1.15 -0.659 -1.064 2.875 -1.064 2.875 s -1.201 -2.181 -4.381 -2.755 c -3.182 -0.576 1.021 -0.157 -4.521 -0.603 c -5.541 -0.445 -12.099 7.107 -12.099 7.107 s 12.158 -3.374 24.644 6.305 c 4.832 3.747 7.576 8.261 9.131 12.391 l -2.021 -1.096 l 0.859 3.864 c -2.83 -3.605 -6.188 -6.161 -14.049 -7.305 c -6.691 -0.974 3.238 4.104 3.238 4.104 s -9.26 -3.121 -11.566 -3.646 c -2.307 -0.524 -5.747 0.641 -5.747 0.641 l 5.741 3.147 l -9.473 -3.01 c 0 0 -3.283 0.903 -4.839 0.929 c -1.555 0.027 6.606 3.981 6.606 3.981 s -4.782 -0.2 -6.688 -1.016 c -1.901 -0.814 -2.607 -0.476 -3.998 -0.121 c -1.389 0.356 -1.978 0.975 -3.02 2.171 c -1.043 1.196 6.553 1.561 6.553 1.561 s -7.821 1.615 -8.928 2.411 c -1.109 0.797 3.535 2.554 3.535 2.554 s -3.113 0.053 -4.547 2.901 c -1.435 2.85 -2.938 3.681 -2.644 11.23 c 0.295 7.55 0.602 15.664 0.602 15.664 s 5.558 -19.594 20.632 -27.469 c 13.375 -6.986 22.453 -3.883 27.064 -0.989 c -3.215 -0.481 -7.18 -0.818 -9.854 -0.156 c -5.188 1.284 2.775 1.633 2.775 1.633 s -6.609 1.873 -8.426 2.354 c -1.814 0.479 -4.349 2.239 -4.349 2.239 l 4.789 0.649 l -7.58 1.114 c 0 0 -2.344 2.337 -3.512 3.042 c -1.168 0.704 5.563 1.104 5.563 1.104 s -3.635 1.887 -5.19 1.9 c -1.553 0.016 -2.034 0.659 -3.031 1.624 c -0.995 0.961 -1.348 1.836 -1.959 3.491 c -0.609 1.652 5.168 -1.295 5.168 -1.295 s -5.658 5.029 -6.377 6.309 c -0.718 1.28 3.039 1.015 3.039 1.015 s -2.338 1.41 -3.002 4.888 c -0.168 0.88 -0.275 1.213 -0.342 1.292 c 0.023 0.285 0.049 0.749 0.07 1.489 c 0.268 9.283 7.52 9.14 7.52 9.14 s -4.769 -7.545 5.726 -21.572 c 6.754 -9.025 16.258 -11.667 22.18 -12.405 l 0.209 0.157 c -0.84 1.833 -1.66 3.67 -2.453 5.513 l -0.578 -0.938 l -2.629 8.678 c -0.197 0.494 -0.393 0.987 -0.586 1.483 l -0.336 -0.547 l -2.193 7.237 c -0.381 1.045 -0.758 2.093 -1.125 3.137 l -0.723 -0.912 l -1.1 6.204 c -0.748 2.246 -1.471 4.489 -2.166 6.727 l -0.752 -0.952 l -1.525 8.604 c -0.219 0.766 -0.434 1.529 -0.646 2.292 l -0.695 -0.882 l -1.906 10.751 c -0.24 0.961 -0.477 1.919 -0.705 2.876 l -0.934 -1.023 l -0.973 9.292 c -0.439 2.001 -0.856 3.987 -1.259 5.959 l -0.974 -1.029 l -0.923 10.917 c -0.392 2.174 -0.765 4.327 -1.115 6.45 l -1.266 -1.241 l -0.625 13.646 l 0.015 -0.057 c -0.294 2.104 -0.567 4.178 -0.825 6.208 l -1.117 -0.992 l 0.039 10.133 c -0.332 3.036 -0.628 5.958 -0.894 8.754 l -1.153 -1.025 l 0.032 8.354 c -0.623 -1.095 -1.255 -2.186 -1.952 -3.245 c -0.22 -0.331 -0.447 -0.66 -0.703 -0.974 c -0.127 -0.156 -0.261 -0.311 -0.422 -0.447 c -0.082 -0.067 -0.169 -0.134 -0.285 -0.175 c -0.115 -0.05 -0.291 -0.01 -0.367 0.086 c -0.152 0.181 -0.194 0.376 -0.262 0.561 c -0.036 0.115 -0.076 0.228 -0.119 0.338 c -0.241 -0.433 -0.506 -0.854 -0.807 -1.251 c 0.289 0.438 0.535 0.896 0.756 1.367 c -0.014 0.03 -0.023 0.061 -0.039 0.089 c -0.088 0.167 -0.229 0.322 -0.428 0.347 c -0.195 0.025 -0.393 -0.053 -0.568 -0.144 c 0.169 0.103 0.361 0.195 0.574 0.182 c 0.217 -0.012 0.389 -0.176 0.492 -0.347 c 0.006 -0.01 0.01 -0.019 0.016 -0.029 c 0.371 0.813 0.664 1.662 0.945 2.506 c 0.447 1.377 0.816 2.775 1.149 4.182 c 0.314 1.335 0.593 2.677 0.847 4.022 l -0.676 -0.53 l 0.216 3.233 c -0.539 -1.745 -1.187 -3.455 -1.983 -5.098 c 1.045 2.591 1.733 5.291 2.178 8.021 l 0.408 6.131 c -0.029 -0.166 -0.055 -0.332 -0.086 -0.498 c -0.647 -3.301 -1.646 -6.541 -3.113 -9.565 c 1.255 3.112 2.018 6.379 2.432 9.669 c 0.072 0.577 0.129 1.156 0.18 1.735 c -0.49 -0.391 -0.854 -0.697 -1.002 -0.843 c -0.084 -0.084 -0.266 -0.113 -0.521 -0.095 c -0.496 -2.018 -1.076 -4.012 -1.748 -5.976 c -1.713 -4.98 -4.012 -9.773 -7.02 -14.08 c 2.569 4.564 4.353 9.478 5.541 14.484 c 0.48 2.03 0.859 4.077 1.148 6.134 c -0.295 0.112 -0.602 0.237 -0.918 0.376 c -0.021 -0.14 -0.039 -0.279 -0.062 -0.419 c -0.479 -3.019 -1.282 -5.989 -2.511 -8.765 c 0.866 2.901 1.273 5.891 1.366 8.866 c 0.009 0.297 0.013 0.593 0.015 0.889 c -0.166 0.086 -0.33 0.176 -0.496 0.268 c -0.047 -1.43 -0.143 -2.858 -0.33 -4.285 c -0.129 -0.951 -0.297 -1.902 -0.563 -2.84 c -0.275 -0.928 -0.61 -1.883 -1.314 -2.668 c -0.679 -0.661 -1.249 -1.395 -1.515 -2.276 c -0.065 -0.219 -0.108 -0.442 -0.135 -0.672 l -0.03 -0.349 c -0.004 -0.061 -0.01 -0.12 -0.021 -0.186 c -0.014 -0.058 -0.029 -0.153 -0.135 -0.2 c -0.191 -0.036 -0.279 0.056 -0.396 0.102 c -0.108 0.057 -0.213 0.119 -0.316 0.181 l -0.612 0.385 l 0.648 -0.323 c 0.107 -0.052 0.217 -0.104 0.326 -0.148 c 0.101 -0.041 0.244 -0.092 0.293 -0.067 c 0.031 0.007 0.039 0.156 0.034 0.263 l -0.005 0.355 c 0.002 0.24 0.022 0.483 0.07 0.725 c 0.18 0.963 0.738 1.841 1.352 2.569 c 0.516 0.696 0.752 1.604 0.915 2.494 c 0.159 0.901 0.228 1.821 0.257 2.745 c 0.051 1.739 -0.039 3.486 -0.187 5.231 c -0.114 0.08 -0.227 0.163 -0.337 0.245 c -0.209 -0.652 -0.449 -1.288 -0.709 -1.912 c -0.525 -1.241 -1.1 -2.389 -1.584 -3.604 c -0.246 -0.604 -0.469 -1.207 -0.672 -1.834 c -0.029 -0.081 -0.053 -0.164 -0.121 -0.26 c -0.078 -0.102 -0.18 -0.137 -0.252 -0.171 c -0.154 -0.065 -0.301 -0.133 -0.447 -0.211 c -0.29 -0.157 -0.57 -0.337 -0.846 -0.524 c 0.245 0.224 0.496 0.442 0.768 0.641 c 0.135 0.1 0.281 0.194 0.424 0.279 c 0.072 0.044 0.13 0.082 0.145 0.12 c 0.021 0.042 0.039 0.12 0.053 0.197 c 0.106 0.639 0.244 1.292 0.402 1.929 c 0.303 1.275 0.719 2.551 1.038 3.781 c 0.229 0.903 0.411 1.815 0.516 2.717 c -0.292 0.319 -0.533 0.644 -0.702 0.968 c -1.494 2.879 -15.285 4.064 -15.285 4.064 l -10.136 1.524 h 77.475 c -0.654 -0.589 -15.014 -1.011 -17.922 -2.71 c -2.322 -1.358 -4.283 -2.621 -5.557 -3.468 c 0.133 -1.075 0.385 -2.136 0.803 -3.145 c 0.252 -0.608 0.563 -1.198 0.932 -1.754 c 0.375 -0.548 0.803 -1.11 1.254 -1.604 c 0.229 -0.242 0.477 -0.485 0.734 -0.624 c 0.135 -0.066 0.232 -0.085 0.305 -0.038 c 0.086 0.049 0.162 0.2 0.207 0.35 c 0.096 0.312 0.131 0.658 0.176 0.999 c 0.049 0.339 0.066 0.699 0.229 1.013 c -0.115 -0.327 -0.084 -0.679 -0.086 -1.02 c 0.002 -0.346 0.02 -0.692 -0.039 -1.055 c -0.035 -0.178 -0.07 -0.379 -0.258 -0.557 c -0.094 -0.088 -0.24 -0.136 -0.365 -0.137 c -0.127 -0.003 -0.238 0.026 -0.338 0.06 c -0.389 0.149 -0.676 0.38 -0.963 0.606 c -0.561 0.472 -1.055 0.963 -1.545 1.504 c -0.482 0.545 -0.908 1.14 -1.277 1.769 c -0.494 0.845 -0.873 1.749 -1.17 2.68 c -0.105 -0.073 -0.166 -0.116 -0.166 -0.116 s -0.492 0.023 -1.227 0.11 c 0.139 -0.865 0.305 -1.727 0.516 -2.58 c 0.691 -2.823 1.797 -5.587 3.469 -8.065 c -1.977 2.249 -3.473 4.912 -4.561 7.718 c 0.025 -0.243 0.051 -0.487 0.082 -0.73 c 0.186 -1.429 0.479 -2.852 0.887 -4.249 c 0.813 -2.793 2.096 -5.494 3.938 -7.866 c -2.133 2.098 -3.816 4.653 -5.049 7.405 l 0.338 -2.613 c 0.596 -1.457 1.324 -2.869 2.221 -4.198 c -0.75 0.854 -1.416 1.781 -2.031 2.741 l 0.297 -2.284 c 0.566 -1.145 1.189 -2.262 1.914 -3.32 c 0.838 -1.21 1.68 -2.42 2.59 -3.574 c 0.229 -0.287 0.463 -0.57 0.713 -0.837 c 0.125 -0.132 0.256 -0.26 0.395 -0.369 c 0.135 -0.104 0.314 -0.21 0.387 -0.103 c 0.088 0.117 0.109 0.316 0.139 0.49 c 0.025 0.18 0.049 0.363 0.096 0.544 c 0.049 0.175 0.127 0.372 0.309 0.464 c 0.184 0.086 0.387 0.034 0.557 -0.031 c -0.176 0.056 -0.379 0.091 -0.539 0 c -0.158 -0.092 -0.221 -0.276 -0.256 -0.448 c -0.035 -0.176 -0.045 -0.356 -0.059 -0.539 c -0.023 -0.183 -0.012 -0.369 -0.131 -0.563 c -0.063 -0.11 -0.24 -0.135 -0.336 -0.093 c -0.105 0.032 -0.191 0.086 -0.273 0.14 c -0.16 0.11 -0.303 0.234 -0.441 0.363 c -0.275 0.257 -0.531 0.529 -0.781 0.806 c -0.994 1.107 -1.916 2.267 -2.834 3.427 c -0.766 0.979 -1.438 2.016 -2.064 3.081 l -1.078 0.602 c 1.107 -3.106 2.482 -6.141 4.357 -8.883 c 0.996 -1.438 1.996 -2.876 3.078 -4.247 c 0.271 -0.342 0.549 -0.678 0.848 -0.993 c 0.148 -0.157 0.303 -0.311 0.469 -0.44 c 0.16 -0.123 0.373 -0.248 0.459 -0.121 c 0.105 0.141 0.129 0.375 0.164 0.583 c 0.031 0.213 0.057 0.431 0.115 0.646 c 0.047 0.167 0.133 0.335 0.271 0.458 h 0.064 c -0.141 -0.118 -0.217 -0.297 -0.254 -0.477 c -0.041 -0.209 -0.053 -0.425 -0.07 -0.641 c -0.027 -0.217 -0.014 -0.438 -0.154 -0.669 c -0.039 -0.056 -0.107 -0.11 -0.186 -0.124 c -0.08 -0.018 -0.152 -0.005 -0.215 0.014 c -0.125 0.039 -0.225 0.102 -0.322 0.165 c -0.191 0.131 -0.361 0.279 -0.525 0.433 c -0.326 0.306 -0.631 0.629 -0.928 0.956 c -1.182 1.317 -2.277 2.693 -3.369 4.072 c -1.748 2.234 -3.154 4.698 -4.352 7.248 c -0.018 -0.856 -0.035 -1.729 -0.049 -2.618 l 1.396 -10.772 l -1.404 0.784 c 0.031 -2.306 0.084 -4.692 0.164 -7.158 l 2.168 -11.115 l -1.695 0.813 c 0.18 -3.023 0.402 -6.14 0.668 -9.327 l 2.439 -9.921 l -1.557 0.659 c 0.283 -2.637 0.598 -5.317 0.949 -8.036 l 2.789 -8.459 l -1.691 0.571 c 0.383 -2.541 0.795 -5.11 1.24 -7.705 l 2.604 -7.891 l -1.236 0.417 c 0.309 -1.598 0.627 -3.205 0.963 -4.817 l 2.938 -7.206 l -1.449 0.384 c 0.242 -1.049 0.486 -2.103 0.738 -3.158 l 3.023 -7.417 l -1.248 0.331 c 0.613 -2.342 1.258 -4.694 1.934 -7.052 l 2.543 -5.256 l -1.057 0.215 c 0.428 -1.407 0.865 -2.814 1.314 -4.224 l 2.916 -6.023 l -0.984 0.197 c 0.291 -0.847 0.586 -1.694 0.887 -2.542 l 3.541 -7.323 l -0.924 0.188 c 0.637 -1.666 1.305 -3.331 1.975 -4.994 c 2.479 4.632 6.752 15.169 5.186 30.736 c -2.162 21.497 -6.529 27.103 -6.529 27.103 s 3.428 -1.688 4.684 -2.974 c 1.256 -1.284 1.787 -1.217 3.324 -5.131 c 1.535 -3.914 1.092 -7.014 1.092 -7.014 s 1.793 3.01 2.115 1.223 c 0.32 -1.786 0.119 -10.881 0.119 -10.881 s 1.387 7.13 1.965 5.054 c 0.578 -2.075 0.867 -3.196 0.873 -4.872 c 0.008 -1.677 0.107 -2.667 -0.686 -3.815 c -0.793 -1.151 -1.65 -5.668 -1.65 -5.668 s 3.688 4.527 3.467 2.978 c -0.223 -1.548 -0.168 -5.564 -0.168 -5.564 l -3.309 -6.641 l 2.82 2.862 c 0 0 -0.355 -3.588 -1.033 -5.388 c -0.676 -1.802 -4.301 -7.604 -4.301 -7.604 s 4.293 5.478 2.313 0.421 c -1.203 -3.075 -3.152 -5.987 -4.498 -7.804 c 5.039 -0.48 13.889 0.537 18.27 12.213 c 5.414 14.433 -4.75 34.439 -4.75 34.439 s 8.17 -6.703 12.057 -12.983 c 3.885 -6.279 3.303 -7.744 3.752 -10.893 c 0.449 -3.146 -1.574 -4.76 -1.574 -4.76 s 3.916 0.843 3.576 -0.394 c -0.34 -1.234 -4.697 -6.547 -4.697 -6.547 s 5.178 3.513 5.076 1.97 c -0.102 -1.544 -0.186 -2.367 -0.926 -3.369 c -0.742 -1.001 -1.041 -1.646 -2.691 -1.909 c -1.654 -0.266 -4.9 -2.503 -4.9 -2.503 s 7.307 0.742 6.299 -0.063 c -1.012 -0.806 -2.732 -3.227 -2.732 -3.227 l -7.709 -2.206 l 5.32 0.21 c 0 0 -2.115 -1.947 -3.891 -2.662 s -9.564 -2.251 -9.564 -2.251 s 8.604 0.987 3.5 -0.976 c -1.961 -0.756 -4.639 -0.961 -7.191 -0.928 c 2.268 -1.029 4.463 -2.342 4.463 -2.342 s -0.762 -0.051 -3.689 -0.025 c 3.754 -2.022 8.789 -3.843 14.881 -3.97 c 15.672 -0.323 20.197 8.434 20.197 8.434 S 291.458 202.382 284.258 196.449 Z M 200.635 346.484 c -0.351 -0.854 -0.712 -1.714 -1.157 -2.529 c 0.158 -0.309 0.24 -0.661 0.439 -0.888 c 0.106 -0.114 0.266 -0.006 0.401 0.123 c 0.134 0.131 0.253 0.286 0.365 0.443 c 0.225 0.318 0.427 0.654 0.622 0.995 c 0.773 1.366 1.455 2.788 2.135 4.206 c 0.033 0.069 0.063 0.141 0.096 0.211 l 0.016 3.975 l 0.027 -0.138 c -0.068 0.875 -0.132 1.723 -0.195 2.557 c -0.403 -1.616 -0.828 -3.229 -1.316 -4.822 C 201.639 349.224 201.175 347.841 200.635 346.484 Z"/><path d="M 185.604 237.291 C 185.522 236.326 185.454 237.469 185.604 237.291 L 185.604 237.291 Z"/><path d="M 212.04 122.407 c -1.301 -4.823 -5.959 -5.804 -5.959 -5.804 s 7.494 -1.377 6.066 -2.931 c -1.425 -1.552 -12.68 -6.312 -12.68 -6.312 s 11.508 1.629 10.299 -0.523 c -1.208 -2.154 -1.907 -3.28 -3.885 -4.233 c -1.98 -0.951 -2.941 -1.678 -6.037 -0.967 c -3.102 0.711 -10.34 -0.361 -10.34 -0.361 s 13.427 -3.763 11.102 -4.254 c -2.326 -0.491 -6.986 -2.836 -6.986 -2.836 l -15.113 1.924 l 9.555 -3.214 c 0 0 -4.816 -2.797 -8.434 -2.651 c -3.618 0.146 -18.446 2.3 -18.446 2.3 s 16.416 -4.991 6.083 -5.416 c -12.139 -0.5 -17.938 2.486 -23.258 7.249 l 2.438 -5.733 l -3.358 1.111 c 3.563 -5.942 9.025 -12.138 17.395 -16.541 c 21.622 -11.377 38.865 -2.642 38.865 -2.642 s -7.594 -13.585 -16.043 -14.498 c -8.45 -0.91 -2.018 -0.344 -6.965 -0.372 c -4.941 -0.03 -7.394 3 -7.394 3 s 1.181 -5.447 -0.742 -4.76 c -1.921 0.686 -10.086 7.552 -10.086 7.552 s 5.318 -7.643 2.904 -7.222 c -2.414 0.419 -3.698 0.687 -5.241 1.871 c -1.542 1.186 -2.538 1.708 -2.895 3.988 c -0.355 2.281 -3.744 7.081 -3.744 7.081 s 0.903 -10.011 -0.321 -8.499 c -1.227 1.516 -4.957 4.284 -4.957 4.284 l -3.179 10.822 l 0.141 -7.228 c 0 0 -2.976 3.216 -4.031 5.747 c -1.055 2.529 -3.184 13.336 -3.184 13.336 s 1.24 -11.806 -1.652 -4.55 c -1.401 3.511 -1.921 8.944 -2.087 13.617 c -1.771 -3.622 -4.377 -8.339 -7.229 -11.414 c -5.175 -5.586 -0.017 4.658 -0.017 4.658 s -5.657 -9.045 -7.504 -10.978 c -1.849 -1.932 -5.738 -3.843 -5.738 -3.843 l 2.575 6.478 l -6.649 -8.71 c 0 0 -4.447 -1.256 -6.113 -2.215 c -1.666 -0.958 2.568 7.779 2.568 7.779 s -4.812 -3.202 -5.917 -5.144 c -1.106 -1.938 -2.22 -2.078 -4.072 -2.634 c -1.854 -0.555 -3.152 -0.367 -5.567 0.058 c -2.414 0.426 5.175 5.552 5.175 5.552 s -10.006 -3.475 -12.047 -3.454 c -2.043 0.021 0.911 4.544 0.911 4.544 s -3.333 -1.917 -7.976 -0.243 c -4.646 1.675 -1.854 0.715 -3.532 1.665 c -12.575 7.105 -9.131 16.281 -9.131 16.281 s 9.399 -12.248 32.822 -7.22 c 9.106 1.956 16.122 6.229 21.151 10.442 c -4.385 -0.883 -5.543 -1.026 -5.543 -1.026 s 2.902 2.666 6 4.915 c -3.82 -0.789 -7.899 -1.245 -11.071 -0.642 c -8.243 1.565 4.961 2.521 4.961 2.521 s -12.146 0.129 -15.023 0.721 c -2.876 0.594 -6.632 2.999 -6.632 2.999 l 8.046 1.21 l -12.225 1.188 c 0 0 -3.304 3.251 -5.062 4.207 c -1.755 0.956 9.431 1.917 9.431 1.917 s -5.539 2.526 -8.097 2.458 c -2.556 -0.067 -3.198 0.842 -4.609 2.179 c -1.41 1.339 -1.782 2.587 -2.395 4.948 c -0.611 2.359 8.207 -1.583 8.207 -1.583 s -8.123 6.964 -9.001 8.779 c -0.879 1.815 5.25 1.642 5.25 1.642 s -3.519 1.911 -3.78 6.912 c -0.265 5.003 -1.576 7.103 2.385 17.947 c 3.962 10.843 14.227 23.578 14.227 23.578 s -9.295 -33.906 3.13 -54.682 c 10.053 -16.808 23.638 -15.828 31.059 -13.627 c -2.561 2.422 -6.353 6.368 -9.076 10.779 c -4.48 7.256 3.596 0.018 3.596 0.018 s -7.168 7.935 -8.72 10.528 c -1.553 2.591 -3.156 8.042 -3.156 8.042 l 5.085 -3.615 l -6.942 9.324 c 0 0 -1.115 6.231 -1.91 8.566 c -0.794 2.334 6.088 -3.608 6.088 -3.608 s -2.63 6.743 -4.165 8.296 c -1.532 1.55 -1.677 3.109 -2.167 5.708 c -0.49 2.596 -0.388 4.415 -0.139 7.794 c 0.248 3.381 4.455 -7.254 4.455 -7.254 s -3.012 14.019 -3.063 16.878 c -0.051 2.859 3.538 -1.284 3.538 -1.284 s -1.59 4.672 -0.452 11.172 c 1.14 6.504 1.167 4.944 1.167 4.944 l 8.436 9.917 c 0 0 -4.884 -9.94 -1.723 -43.841 c 2.288 -24.551 11.841 -39.626 16.939 -46.079 c 0.511 2.769 1.016 5.536 1.475 8.3 l -1.331 -0.558 l 3.134 12.36 c 0.197 1.397 0.39 2.796 0.573 4.191 l -1.417 -0.591 l 2.579 10.167 c 0.255 2.313 0.494 4.617 0.716 6.917 l -1.522 -0.637 l 2.25 8.871 c 0.312 3.845 0.579 7.672 0.8 11.475 l -1.773 -0.874 l 2.328 12.354 c 0.064 1.708 0.118 3.408 0.168 5.103 l -2.061 -1.012 l 2.262 12.003 c 0.021 2.593 0.022 5.172 0.009 7.736 l -1.73 -1.004 l 1.554 12.967 c -0.105 4.144 -0.25 8.241 -0.434 12.285 l -2.367 -1.374 l 1.665 13.9 c -0.283 4.311 -0.608 8.55 -0.97 12.713 l -2.14 -1.469 l 0.705 16.062 c -0.551 5.012 -1.145 9.898 -1.777 14.63 l -2.302 -1.747 l -0.058 17.831 c -0.615 3.84 -1.247 7.551 -1.887 11.128 l -1.874 -1.618 l -0.861 13.204 c -0.716 -1.682 -1.5 -3.331 -2.383 -4.931 c -1.486 -2.716 -2.977 -5.429 -4.647 -8.05 c -0.422 -0.653 -0.856 -1.3 -1.343 -1.918 c -0.245 -0.307 -0.5 -0.609 -0.808 -0.881 c -0.157 -0.132 -0.324 -0.264 -0.547 -0.344 c -0.218 -0.099 -0.555 -0.02 -0.698 0.17 c -0.293 0.354 -0.372 0.739 -0.499 1.104 c -0.071 0.226 -0.146 0.447 -0.229 0.664 c -0.461 -0.853 -0.965 -1.682 -1.542 -2.463 c 0.554 0.861 1.025 1.766 1.445 2.692 c -0.025 0.057 -0.045 0.119 -0.074 0.175 c -0.167 0.328 -0.437 0.634 -0.815 0.683 c -0.374 0.05 -0.752 -0.104 -1.088 -0.282 c 0.324 0.199 0.691 0.384 1.097 0.357 c 0.416 -0.023 0.744 -0.349 0.94 -0.683 c 0.011 -0.018 0.018 -0.038 0.029 -0.058 c 0.71 1.601 1.269 3.271 1.809 4.933 c 0.851 2.712 1.557 5.466 2.193 8.235 c 0.813 3.56 1.499 7.146 2.111 10.746 l -0.392 5.991 c -1.176 -4.656 -2.734 -9.207 -4.768 -13.531 c 2.251 5.759 3.666 11.789 4.484 17.871 l -0.38 5.834 c -1.223 -5.397 -2.933 -10.677 -5.275 -15.657 c 2.395 6.128 3.853 12.56 4.642 19.037 c 0.039 0.319 0.062 0.641 0.097 0.962 c -0.169 0.54 -0.37 1.138 -0.586 1.759 c -0.505 -0.429 -0.89 -0.771 -1.079 -0.963 c -0.163 -0.165 -0.51 -0.223 -0.998 -0.187 c -0.946 -3.974 -2.054 -7.901 -3.339 -11.765 c -3.269 -9.809 -7.661 -19.246 -13.407 -27.725 c 4.909 8.988 8.314 18.662 10.584 28.519 c 0.917 3.996 1.64 8.029 2.192 12.077 c -0.563 0.221 -1.149 0.468 -1.752 0.742 c -0.04 -0.275 -0.074 -0.552 -0.116 -0.825 c -0.918 -5.946 -2.451 -11.793 -4.796 -17.258 c 1.655 5.712 2.434 11.599 2.61 17.459 c 0.017 0.583 0.023 1.166 0.029 1.749 c -0.317 0.169 -0.633 0.345 -0.948 0.524 c -0.089 -2.813 -0.274 -5.628 -0.632 -8.437 c -0.245 -1.873 -0.567 -3.744 -1.072 -5.592 c -0.527 -1.827 -1.166 -3.708 -2.513 -5.251 c -1.295 -1.306 -2.383 -2.747 -2.891 -4.483 c -0.125 -0.43 -0.209 -0.872 -0.257 -1.323 l -0.058 -0.688 c -0.01 -0.118 -0.02 -0.236 -0.043 -0.364 c -0.026 -0.112 -0.054 -0.303 -0.257 -0.395 c -0.367 -0.07 -0.535 0.108 -0.756 0.199 c -0.208 0.112 -0.405 0.235 -0.603 0.358 l -1.17 0.755 l 1.237 -0.635 c 0.207 -0.103 0.415 -0.205 0.625 -0.293 c 0.191 -0.082 0.465 -0.182 0.56 -0.132 c 0.057 0.014 0.074 0.308 0.063 0.517 l -0.01 0.7 c 0.004 0.474 0.045 0.953 0.134 1.426 c 0.345 1.896 1.411 3.626 2.581 5.059 c 0.986 1.373 1.437 3.159 1.75 4.912 c 0.302 1.772 0.434 3.587 0.49 5.406 c 0.097 3.423 -0.075 6.864 -0.356 10.298 c -0.219 0.16 -0.433 0.321 -0.643 0.484 c -0.399 -1.285 -0.858 -2.537 -1.353 -3.767 c -1.005 -2.441 -2.101 -4.702 -3.026 -7.095 c -0.473 -1.19 -0.896 -2.374 -1.283 -3.61 c -0.058 -0.158 -0.101 -0.322 -0.232 -0.512 c -0.149 -0.2 -0.343 -0.27 -0.481 -0.336 c -0.295 -0.129 -0.575 -0.263 -0.853 -0.417 c -0.556 -0.307 -1.092 -0.662 -1.617 -1.031 c 0.468 0.44 0.948 0.87 1.467 1.262 c 0.258 0.196 0.535 0.381 0.808 0.55 c 0.139 0.086 0.248 0.162 0.276 0.238 c 0.042 0.081 0.074 0.235 0.102 0.386 c 0.204 1.258 0.465 2.546 0.767 3.799 c 0.578 2.512 1.374 5.022 1.985 7.445 c 0.437 1.779 0.785 3.573 0.983 5.35 c -0.558 0.628 -1.019 1.267 -1.34 1.905 c -2.854 5.668 -29.193 8.002 -29.193 8.002 l -19.36 3.001 h 140.744 c -1.248 -1.157 -21.444 -1.987 -26.999 -5.335 c -4.438 -2.674 -8.181 -5.161 -10.612 -6.828 c 0.253 -2.114 0.734 -4.204 1.529 -6.19 c 0.482 -1.2 1.074 -2.359 1.782 -3.454 c 0.716 -1.08 1.533 -2.187 2.396 -3.159 c 0.436 -0.476 0.908 -0.955 1.401 -1.227 c 0.256 -0.132 0.444 -0.168 0.582 -0.076 c 0.165 0.097 0.308 0.395 0.396 0.69 c 0.183 0.611 0.25 1.294 0.334 1.966 c 0.095 0.667 0.128 1.376 0.436 1.992 c -0.219 -0.645 -0.157 -1.333 -0.162 -2.007 c 0.006 -0.679 0.037 -1.36 -0.073 -2.074 c -0.07 -0.351 -0.135 -0.747 -0.496 -1.098 c -0.179 -0.174 -0.457 -0.268 -0.696 -0.27 c -0.243 -0.007 -0.454 0.051 -0.644 0.119 c -0.746 0.292 -1.293 0.746 -1.841 1.194 c -1.072 0.926 -2.013 1.895 -2.95 2.96 c -0.921 1.073 -1.736 2.244 -2.44 3.482 c -0.943 1.663 -1.669 3.443 -2.234 5.275 c -0.203 -0.146 -0.318 -0.229 -0.318 -0.229 s -0.941 0.047 -2.341 0.218 c 0.262 -1.703 0.582 -3.398 0.982 -5.08 c 1.323 -5.56 3.432 -11.002 6.626 -15.881 c -3.774 4.429 -6.632 9.672 -8.709 15.197 c 0.048 -0.479 0.095 -0.959 0.155 -1.438 c 0.355 -2.814 0.915 -5.615 1.691 -8.367 c 1.552 -5.497 4.004 -10.817 7.521 -15.488 c -4.104 4.164 -7.344 9.24 -9.703 14.709 c -1.079 2.5 -1.974 5.086 -2.708 7.726 c 0.269 -1.805 0.604 -3.602 1.028 -5.384 c 1.323 -5.56 3.432 -11.002 6.626 -15.88 c -3.47 4.071 -6.158 8.835 -8.185 13.871 c 0.402 -1.383 0.83 -2.759 1.289 -4.123 c 1.821 -5.381 4.094 -10.645 7.24 -15.386 c 1.6 -2.383 3.209 -4.766 4.946 -7.039 c 0.438 -0.565 0.884 -1.124 1.362 -1.646 c 0.24 -0.26 0.488 -0.514 0.755 -0.729 c 0.257 -0.205 0.6 -0.411 0.738 -0.202 c 0.169 0.232 0.21 0.623 0.264 0.966 c 0.05 0.354 0.093 0.717 0.186 1.071 c 0.092 0.344 0.242 0.732 0.588 0.912 c 0.348 0.173 0.736 0.068 1.062 -0.061 c -0.333 0.109 -0.724 0.18 -1.029 0 c -0.302 -0.181 -0.42 -0.545 -0.487 -0.883 c -0.068 -0.346 -0.087 -0.702 -0.115 -1.062 c -0.042 -0.36 -0.022 -0.727 -0.248 -1.108 c -0.123 -0.217 -0.46 -0.266 -0.643 -0.184 c -0.202 0.064 -0.364 0.168 -0.52 0.274 c -0.309 0.217 -0.58 0.463 -0.845 0.716 c -0.525 0.506 -1.013 1.043 -1.491 1.586 c -1.899 2.182 -3.66 4.464 -5.416 6.75 c -3.444 4.535 -6.065 9.638 -8.244 14.88 l 0.93 -3.572 c 0.333 -1.095 0.673 -2.186 1.037 -3.27 c 2.164 -6.393 4.864 -12.646 8.601 -18.279 c 1.901 -2.831 2.189 -6.671 4.253 -9.373 c 0.52 -0.671 1.05 -1.334 1.618 -1.956 c 0.285 -0.309 0.579 -0.61 0.897 -0.864 c 0.305 -0.244 0.713 -0.489 0.876 -0.24 c 0.201 0.275 0.25 0.739 0.314 1.147 c 0.06 0.421 0.109 0.85 0.219 1.271 c 0.11 0.409 0.287 0.871 0.7 1.084 c 0.413 0.205 0.521 1.711 0.909 1.559 c -0.396 0.13 -0.508 -1.417 -0.87 -1.63 c -0.359 -0.215 -0.498 -0.646 -0.579 -1.048 c -0.081 -0.413 -0.103 -0.836 -0.136 -1.264 c -0.051 -0.427 -0.027 -0.862 -0.295 -1.315 c -0.075 -0.109 -0.205 -0.217 -0.356 -0.246 c -0.149 -0.033 -0.288 -0.008 -0.407 0.028 c -0.239 0.077 -0.433 0.199 -0.618 0.325 c -0.366 0.258 -0.689 0.552 -1.003 0.851 c -0.625 0.603 -1.204 1.239 -1.772 1.884 c -2.256 2.593 -2.725 6.313 -4.811 9.028 c -4.189 5.52 -7.359 11.741 -9.983 18.126 c -0.339 0.831 -0.668 1.666 -0.99 2.505 c 0.048 -0.41 0.097 -0.83 0.146 -1.247 c 0.054 -0.093 0.102 -0.188 0.156 -0.28 c -0.051 0.065 -0.097 0.134 -0.146 0.199 c 0.029 -0.251 0.058 -0.497 0.087 -0.751 l 0 0.22 l 4.148 -21.133 l -2.037 1.258 c 0.434 -4.405 0.86 -9.015 1.266 -13.81 l 3.078 -15.675 l -1.973 1.213 c 0.219 -3.215 0.425 -6.503 0.612 -9.849 l 0.004 0.093 l 3.127 -21.303 l -2.269 1.555 c 0.106 -3.388 0.188 -6.826 0.249 -10.307 l 1.867 -17.164 l -1.768 1.313 c -0.017 -3.169 -0.051 -6.365 -0.114 -9.589 l 1.309 -14.665 l -1.706 1.314 c -0.06 -1.547 -0.127 -3.098 -0.2 -4.654 l 0.339 -17.194 l -1.304 1.165 c -0.094 -1.243 -0.189 -2.486 -0.288 -3.734 l 0.273 -13.76 l -1.413 1.258 c -0.375 -3.663 -0.791 -7.345 -1.246 -11.038 l 0.199 -9.923 l -1.355 1.205 c -0.243 -1.722 -0.495 -3.453 -0.755 -5.182 l -1.134 -11.836 l -0.668 0.75 c -0.144 -0.824 -0.29 -1.644 -0.439 -2.465 l -1.358 -14.193 l -1.146 1.285 c -0.643 -3.081 -1.327 -6.162 -2.039 -9.241 l 0.359 -0.183 c 8.667 2.854 22.144 9.688 29.591 25.611 c 11.572 24.744 2.167 35.044 2.167 35.044 s 10.841 2.316 14.009 -11.973 c 0.253 -1.142 0.429 -1.852 0.55 -2.286 c -0.076 -0.14 -0.139 -0.688 -0.128 -2.1 c 0.04 -5.575 -3.049 -8.434 -3.049 -8.434 s 5.56 1.497 4.862 -0.691 c -0.697 -2.189 -7.69 -11.61 -7.69 -11.61 s 7.794 6.233 7.37 3.499 c -0.424 -2.739 -0.692 -4.195 -1.9 -5.97 c -1.208 -1.781 -1.74 -2.917 -4.066 -3.388 c -2.329 -0.472 -7.223 -4.442 -7.223 -4.442 s 10.222 1.325 8.679 -0.103 c -1.543 -1.429 -4.364 -5.722 -4.364 -5.722 l -11.044 -3.916 l 7.382 0.379 c 0 0 -3.281 -3.456 -5.861 -4.723 c -2.582 -1.27 -11.944 -6.078 -11.944 -6.078 s 12.056 1.76 4.652 -1.726 c -3.816 -1.797 -9.868 -2.42 -14.837 -2.604 c 7.783 -3.147 22.334 -5.329 40.324 9.349 c 20.278 16.545 22.781 48.48 22.781 48.48 s 2.878 -12.471 5.569 -24.073 C 215.352 128.955 213.344 127.233 212.04 122.407 Z M 117.507 323.491 c -0.669 -1.682 -1.361 -3.376 -2.21 -4.979 c 0.301 -0.608 0.458 -1.304 0.839 -1.748 c 0.204 -0.226 0.508 -0.014 0.767 0.241 c 0.256 0.258 0.483 0.563 0.698 0.873 c 0.429 0.626 0.814 1.289 1.187 1.959 c 1.476 2.691 2.781 5.489 4.078 8.284 c 1.299 2.772 2.331 5.649 3.156 8.585 c -0.521 2.503 -1.042 4.93 -1.557 7.24 l -1.278 -1.103 c -0.881 -3.766 -1.843 -7.51 -2.943 -11.216 C 119.425 328.886 118.537 326.163 117.507 323.491 Z"/><path fill="#fff" d="M 183.148 164.427 C 183.322 164.748 183.56 162.957 183.148 164.427 L 183.148 164.427 Z"/></g><g xmlns="http://www.w3.org/2000/svg" id="SvgjsG3065" fill="#000" transform="matrix(3.24242 0 0 3.24242 167.986 -4.61971)" featureKey="text1"><path d="M 13.057 12.8224 q -0.244141 0 -0.361328 -0.361328 q -0.214844 -0.673828 -1.12305 -0.673828 q -0.546875 0 -1.16211 0.253906 q 0.361328 0.908203 0.361328 1.88477 q 0 0.351563 -0.0976563 0.917969 q 0.341797 0.302734 0.341797 1.39648 q 0 2.91016 -1.38672 5.36133 q -1.66016 2.93945 -4.39453 2.93945 q -2.32422 0 -3.7207 -2.30469 q -1.20117 -1.98242 -1.20117 -4.53125 q 0 -3.0957 1.79688 -5.56641 q 1.96289 -2.69531 4.86328 -2.69531 q 1.89453 0 2.99805 1.75781 q 0.898438 -0.3125 1.66016 -0.3125 q 0.605469 0 1.13281 0.332031 q 0.625 0.390625 0.625 1.00586 q 0 0.595703 -0.332031 0.595703 Z M 6.1426 14.0821 q 1.00586 -1.34766 2.53906 -2.25586 q -0.751953 -1.31836 -1.81641 -1.31836 q -2.25586 0 -3.70117 2.40234 q -1.33789 2.22656 -1.33789 5.3125 q 0 2.25586 0.859375 3.60352 q 0.976563 1.5332 2.88086 1.5332 q 1.57227 0 2.97852 -2.14844 q 1.31836 -2.01172 1.57227 -4.35547 q -1.11328 2.37305 -3.08594 2.37305 t -1.9727 -2.3047 q 0 -1.38672 1.08398 -2.8418 Z M 9.1797 12.8024 q -2.75391 1.875 -2.75391 4.10156 q 0 1.14258 0.771484 1.14258 q 0.751953 0 1.47461 -1.15234 q 0.742188 -1.19141 0.742188 -2.56836 q 0 -0.751953 -0.234375 -1.52344 Z M 13.125 16.6016 q 0.234375 0.00976563 0.195313 0.322266 q -0.605469 4.26758 -0.625 5.80078 q 0.537109 0 2.49023 -0.361328 q 0.0878906 0 0.0878906 0.205078 q 0 0.878906 -1.73828 1.36719 q -0.283203 0.0488281 -0.849609 0.0488281 q -1.25977 0 -1.26953 -1.50391 q 0 -2.5 1.37695 -5.67383 q 0.0976563 -0.205078 0.332031 -0.205078 Z M 17.9786 17.9395 q 0 3.41797 0.0976563 4.9707 q 0.273438 0.126953 1.03516 0.126953 q 1.83594 -0.0976563 2.03125 -1.80664 q 0 -1.2207 -0.893555 -2.18262 t -2.2705 -1.1084 Z M 17.4512 16.9336 q 0.166016 -0.253906 0.380859 -0.253906 l 0.13672 0 l 0 0.29297 q 2.33398 0.283203 3.83789 2.23633 q 0.625 0.966797 0.625 1.875 q 0 1.40625 -1.05957 2.18262 t -3.1787 0.77637 l -0.11719 0 q -0.107422 0.449219 -0.498047 0.498047 q -0.527344 0 -0.527344 -0.800781 l 0 -0.078125 q -1.24023 -0.566406 -1.24023 -1.30859 q 0 -0.605469 0.136719 -0.800781 q 0.292969 0.605469 0.957031 0.917969 q -0.0195313 -0.224609 -0.0195313 -0.791016 q 0 -2.70508 0.273438 -3.84766 q -0.351563 -0.0195313 -1.2793 0.0292969 q -0.410156 -0.00976563 -0.410156 -0.253906 q 0 -0.253906 0.483398 -0.46875 t 1.1963 -0.21484 q 0.15625 0 0.302734 0.00976563 Z M 26.7578 16.9531 q 1.19141 0 1.56738 0.239258 t 0.38574 0.62988 q -0.0488281 0.449219 -1.66016 0.449219 l -1.4063 0 q -0.244141 0.361328 -0.449219 1.69922 l 0.039063 0 q 2.35352 -0.126953 2.48047 -0.126953 q 0.683594 0.0292969 0.683594 0.458984 q 0 0.732422 -3.41797 0.820313 q -0.0390625 1.81641 -0.0390625 2.53418 t -0.61035 0.64941 t -0.61035 -1.3184 q 0 -0.576172 0.117188 -1.93359 q -0.683594 0 -0.683594 -0.400391 q 0 -0.410156 0.849609 -0.546875 q 0.15625 -0.986328 0.410156 -1.875 q -0.976563 -0.0878906 -0.976563 -0.46875 q 0.0585938 -0.810547 3.32031 -0.810547 Z M 32.2363 10.9964 q 1.41602 0 1.66016 0.722656 q 1.49414 0 1.49414 1.13281 q 0 1.11328 -1.94336 2.22656 q -1.05469 0.527344 -2.25586 0.527344 q -0.654297 0 -1.49414 -0.244141 q -0.410156 0.605469 -0.732422 0.605469 q -0.107422 -0.0292969 -0.117188 -0.205078 q 0 -0.292969 0.244141 -0.888672 q -0.488281 -0.410156 -0.488281 -1.17188 q 0 -1.55273 2.22656 -2.5 q 0.615234 -0.205078 1.40625 -0.205078 Z M 29.8144 13.9064 q 1.5332 -1.49414 2.7832 -1.79688 q -2.43164 -0.175781 -2.82227 1.43555 q -0.0488281 0.253906 0.0390625 0.361328 Z M 30.498 14.6289 q 0.175781 0.126953 1.01563 0.205078 q 1.74805 0 2.91016 -1.49414 q 0.117188 -0.175781 0.117188 -0.449219 q 0 -0.322266 -0.322266 -0.322266 q -1.23047 0 -3.59375 1.9043 Z M 30.5859 16.9336 q 0.585938 0 0.644531 2.01172 q 0 5.01953 -0.849609 5.01953 q -0.634766 0 -0.722656 -2.42188 q 0 -2.40234 0.722656 -4.44336 q 0.0683594 -0.117188 0.205078 -0.166016 Z M 36.0449 17.1094 q 1.37695 -0.0292969 1.8457 0.488281 q 0.15625 0.253906 0.00976563 0.576172 q -0.341797 0.253906 -1.5625 0.253906 l -1.4063 0 q -0.244141 0.361328 -0.546875 1.99219 l 0.039063 0 q 1.57227 -0.126953 1.69922 -0.126953 q 0.683594 0.0292969 0.683594 0.458984 q -0.292969 0.634766 -1.2207 0.732422 q -0.742188 0.0683594 -1.41602 0.0878906 l -0.039063 0.9375 q 0.0585938 0.673828 0.595703 0.673828 q 2.1875 -0.107422 2.67578 -0.205078 q 0.214844 -0.00976563 0.214844 0.126953 q 0 0.771484 -2.59766 1.39648 q -0.390625 0.0878906 -0.761719 0.0878906 q -1.44531 0 -1.44531 -1.44531 q 0 -0.576172 0.214844 -1.73828 q -0.683594 -0.195313 -0.683594 -0.498047 q 0 -0.214844 0.849609 -0.351563 q 0.253906 -1.2793 0.556641 -2.16797 l -0.048828 0 q -0.976563 -0.0878906 -0.976563 -0.46875 q 0.0585938 -0.615234 3.32031 -0.810547 Z M 40.4395 16.6016 q 0.234375 0.00976563 0.195313 0.322266 q -0.605469 4.26758 -0.625 5.80078 q 0.537109 0 2.49023 -0.361328 q 0.0878906 0 0.0878906 0.205078 q 0 0.878906 -1.73828 1.36719 q -0.283203 0.0488281 -0.849609 0.0488281 q -1.25977 0 -1.26953 -1.50391 q 0 -2.5 1.37695 -5.67383 q 0.0976563 -0.205078 0.332031 -0.205078 Z M 45.293 17.9395 q 0 3.41797 0.0976563 4.9707 q 0.273438 0.126953 1.03516 0.126953 q 1.83594 -0.0976563 2.03125 -1.80664 q 0 -1.2207 -0.893555 -2.18262 t -2.2705 -1.1084 Z M 44.7656 16.9336 q 0.166016 -0.253906 0.380859 -0.253906 l 0.13672 0 l 0 0.29297 q 2.33398 0.283203 3.83789 2.23633 q 0.625 0.966797 0.625 1.875 q 0 1.40625 -1.05957 2.18262 t -3.1787 0.77637 l -0.11719 0 q -0.107422 0.449219 -0.498047 0.498047 q -0.527344 0 -0.527344 -0.800781 l 0 -0.078125 q -1.24023 -0.566406 -1.24023 -1.30859 q 0 -0.605469 0.136719 -0.800781 q 0.292969 0.605469 0.957031 0.917969 q -0.0195313 -0.224609 -0.0195313 -0.791016 q 0 -2.70508 0.273438 -3.84766 q -0.351563 -0.0195313 -1.2793 0.0292969 q -0.410156 -0.00976563 -0.410156 -0.253906 q 0 -0.253906 0.483398 -0.46875 t 1.1963 -0.21484 q 0.15625 0 0.302734 0.00976563 Z M 50.3516 15 q 0.419922 0 1.10352 -0.615234 q 1.71875 -1.54297 2.51953 -1.54297 q 0.820313 0 0.820313 0.898438 q 0 0.644531 -0.498047 0.644531 q -0.146484 0 -3.39844 1.51367 q -0.556641 0 -0.683594 -0.898438 l 0.13672 0 Z M 59.3164 17.1094 q 2.5 0.0585938 2.5 0.507813 q 0.00976563 0.595703 -2.22656 0.664063 q -3.16406 0 -3.20313 0.546875 q 0 0.283203 3.39844 0.976563 q 2.14844 0.46875 2.14844 1.71875 q 0 1.42578 -2.65625 1.99219 q -0.410156 0.078125 -0.898438 0.078125 q -2.42188 0 -3.39844 -1.21094 q -0.117188 -0.244141 -0.117188 -0.429688 q 0 -0.800781 2.28516 -0.9375 q 1.97266 0.0878906 1.97266 0.664063 q 0 0.292969 -1.17188 0.351563 q -1.75781 -0.0390625 -1.93359 -0.0195313 t -0.17578 0.097656 q 0.136719 0.419922 2.26563 0.507813 q 2.53906 -0.0390625 2.53906 -1.03516 q 0 -0.771484 -3.75 -1.46484 q -1.03516 -0.224609 -1.41113 -0.581055 t -0.38574 -0.74707 q 0 -0.908203 1.97266 -1.44531 q 1.02539 -0.234375 2.24609 -0.234375 Z"/></g><g xmlns="http://www.w3.org/2000/svg" id="SvgjsG3066" fill="#000" transform="matrix(3.79706 0 0 3.79706 168.481 48.4382)" featureKey="text2"><path d="M 0.13672 10.8204 q 1.20117 -1.19141 3.32031 -1.19141 q 2.82227 0 5.50781 1.68945 q 2.94922 1.85547 2.94922 4.32617 q 0 1.67969 -2.00195 2.89063 q -1.92383 1.17188 -4.35547 1.17188 q -0.400391 0 -0.976563 -0.078125 q -0.0195313 0.3125 -0.0195313 1.17188 q 0 1.2793 0.078125 2.82227 q -0.0390625 0.849609 -0.966797 1.12305 q -0.185547 0 -0.458984 -0.400391 l -0.15625 -0.83984 q -0.0390625 -0.478516 -0.0390625 -1.04492 l 0.039063 -3.1543 q -0.947266 -0.292969 -1.76758 -0.927734 q -0.976563 -0.771484 -0.976563 -1.5332 q 0 -1.47461 2.00195 -2.04102 q 0.800781 -0.15625 0.664063 -0.15625 q 0.0488281 -1.33789 0.0585938 -1.44531 q 0.078125 -0.9375 0.634766 -1.49414 q 0.566406 0.371094 0.625 1.29883 l 0.13672 1.6602 q 2.24609 0 2.24609 1.25977 q 0 0.634766 -0.605469 0.693359 q 0.0585938 -0.146484 0.0585938 -0.273438 q 0 -0.566406 -1.66016 -0.566406 l 0.048828 2.6563 q 0.449219 0.078125 0.957031 0.078125 q 1.46484 0 2.91016 -0.576172 q 2.06055 -0.9375 2.06055 -2.19727 q 0.214844 -2.02148 -3.27148 -3.88672 q -2.08008 -1.04492 -4.46289 -1.20117 q -1.20117 0 -2.53906 0.390625 Z M 2.998 15.7813 q -0.615234 0 -0.9375 0.0585938 q -0.966797 0.195313 -0.966797 0.742188 q 0 0.761719 1.9043 1.45508 l 0 -2.2559 Z M 14.2089 16.3281 q 0.507813 0 1.04492 3.89648 q 0.566406 3.00781 0.566406 3.84766 q 0 0.117188 -0.166016 0.117188 q -0.605469 -0.0488281 -0.800781 -0.917969 l -0.32227 -1.3281 q -0.986328 0.126953 -2.36328 0.0878906 q -0.712891 2.28516 -0.927734 2.36328 q -0.0976563 0.0488281 -0.195313 0 q -0.625 -0.419922 -0.527344 -1.24023 q 0 -0.166016 0.361328 -1.57227 q -0.439453 -0.244141 -0.439453 -1.04492 q 0 -0.078125 0.0439453 -0.0927734 t 0.073242 0.014648 q 0.292969 0.283203 0.683594 0.283203 q 1.29883 -2.99805 2.33398 -4.13086 q 0.283203 -0.283203 0.634766 -0.283203 Z M 12.5683 20.9473 l 1.8066 -0.048828 q -0.458984 -2.88086 -0.566406 -2.88086 q -0.283203 0.185547 -1.24023 2.92969 Z M 17.8516 24.3262 q -1.01563 0 -1.25977 -3.32031 q -0.341797 -0.283203 -0.341797 -0.517578 q 0 -0.371094 0.175781 -0.341797 q 0.0488281 0.0195313 0.126953 0.0195313 q 0 -1.48438 0.332031 -2.20703 q 0.419922 -0.9375 1.52344 -1.03516 q 0.205078 -0.0195313 1.62109 -0.0195313 q 1.12305 0 1.98242 0.361328 q 1.16211 0.488281 1.16211 1.45508 q 0 1.26953 -2.22656 2.04102 q -0.224609 0.0878906 -1.09375 0.224609 q 0.966797 0.498047 2.59766 2.23633 q 0.322266 0.361328 0.322266 0.800781 q 0 0.556641 -0.361328 0.556641 q -0.185547 0 -0.322266 -0.0976563 q -3.0957 -3.02734 -4.0918 -2.69531 q 0.0195313 0.751953 0.390625 1.79688 q 0.136719 0.742188 -0.537109 0.742188 Z M 17.832 20.3418 q 1.46484 -0.195313 2.76367 -0.712891 t 1.2988 -0.91797 q 0 -0.654297 -1.48438 -0.654297 q -1.50391 0 -2.45117 0.078125 q -0.126953 0.634766 -0.126953 1.89453 l 0 0.3125 Z M 27.3437 16.3281 q 0.507813 0 1.04492 3.89648 q 0.566406 3.00781 0.566406 3.84766 q 0 0.117188 -0.166016 0.117188 q -0.605469 -0.0488281 -0.800781 -0.917969 l -0.32227 -1.3281 q -0.986328 0.126953 -2.36328 0.0878906 q -0.712891 2.28516 -0.927734 2.36328 q -0.0976563 0.0488281 -0.195313 0 q -0.625 -0.419922 -0.527344 -1.24023 q 0 -0.166016 0.361328 -1.57227 q -0.439453 -0.244141 -0.439453 -1.04492 q 0 -0.078125 0.0439453 -0.0927734 t 0.073242 0.014648 q 0.292969 0.283203 0.683594 0.283203 q 1.29883 -2.99805 2.33398 -4.13086 q 0.283203 -0.283203 0.634766 -0.283203 Z M 25.7031 20.9473 l 1.8066 -0.048828 q -0.458984 -2.88086 -0.566406 -2.88086 q -0.283203 0.185547 -1.24023 2.92969 Z M 31.7579 17.9395 q 0 3.41797 0.0976563 4.9707 q 0.273438 0.126953 1.03516 0.126953 q 1.83594 -0.0976563 2.03125 -1.80664 q 0 -1.2207 -0.893555 -2.18262 t -2.2705 -1.1084 Z M 31.2305 16.9336 q 0.166016 -0.253906 0.380859 -0.253906 l 0.13672 0 l 0 0.29297 q 2.33398 0.283203 3.83789 2.23633 q 0.625 0.966797 0.625 1.875 q 0 1.40625 -1.05957 2.18262 t -3.1787 0.77637 l -0.11719 0 q -0.107422 0.449219 -0.498047 0.498047 q -0.527344 0 -0.527344 -0.800781 l 0 -0.078125 q -1.24023 -0.566406 -1.24023 -1.30859 q 0 -0.605469 0.136719 -0.800781 q 0.292969 0.605469 0.957031 0.917969 q -0.0195313 -0.224609 -0.0195313 -0.791016 q 0 -2.70508 0.273438 -3.84766 q -0.351563 -0.0195313 -1.2793 0.0292969 q -0.410156 -0.00976563 -0.410156 -0.253906 q 0 -0.253906 0.483398 -0.46875 t 1.1963 -0.21484 q 0.15625 0 0.302734 0.00976563 Z M 39.8828 10.9964 q 1.41602 0 1.66016 0.722656 q 1.49414 0 1.49414 1.13281 q 0 1.11328 -1.94336 2.22656 q -1.05469 0.527344 -2.25586 0.527344 q -0.654297 0 -1.49414 -0.244141 q -0.410156 0.605469 -0.732422 0.605469 q -0.107422 -0.0292969 -0.117188 -0.205078 q 0 -0.292969 0.244141 -0.888672 q -0.488281 -0.410156 -0.488281 -1.17188 q 0 -1.55273 2.22656 -2.5 q 0.615234 -0.205078 1.40625 -0.205078 Z M 37.4609 13.9064 q 1.5332 -1.49414 2.7832 -1.79688 q -2.43164 -0.175781 -2.82227 1.43555 q -0.0488281 0.253906 0.0390625 0.361328 Z M 38.1445 14.6289 q 0.175781 0.126953 1.01563 0.205078 q 1.74805 0 2.91016 -1.49414 q 0.117188 -0.175781 0.117188 -0.449219 q 0 -0.322266 -0.322266 -0.322266 q -1.23047 0 -3.59375 1.9043 Z M 38.2324 16.9336 q 0.585938 0 0.644531 2.01172 q 0 5.01953 -0.849609 5.01953 q -0.634766 0 -0.722656 -2.42188 q 0 -2.40234 0.722656 -4.44336 q 0.0683594 -0.117188 0.205078 -0.166016 Z M 44.4434 17.1094 q 2.5 0.0585938 2.5 0.507813 q 0.00976563 0.595703 -2.22656 0.664063 q -3.16406 0 -3.20313 0.546875 q 0 0.283203 3.39844 0.976563 q 2.14844 0.46875 2.14844 1.71875 q 0 1.42578 -2.65625 1.99219 q -0.410156 0.078125 -0.898438 0.078125 q -2.42188 0 -3.39844 -1.21094 q -0.117188 -0.244141 -0.117188 -0.429688 q 0 -0.800781 2.28516 -0.9375 q 1.97266 0.0878906 1.97266 0.664063 q 0 0.292969 -1.17188 0.351563 q -1.75781 -0.0390625 -1.93359 -0.0195313 t -0.17578 0.097656 q 0.136719 0.419922 2.26563 0.507813 q 2.53906 -0.0390625 2.53906 -1.03516 q 0 -0.771484 -3.75 -1.46484 q -1.03516 -0.224609 -1.41113 -0.581055 t -0.38574 -0.74707 q 0 -0.908203 1.97266 -1.44531 q 1.02539 -0.234375 2.24609 -0.234375 Z M 50.8301 17.1094 q 1.37695 -0.0292969 1.8457 0.488281 q 0.15625 0.253906 0.00976563 0.576172 q -0.341797 0.253906 -1.5625 0.253906 l -1.4063 0 q -0.244141 0.361328 -0.546875 1.99219 l 0.039063 0 q 1.57227 -0.126953 1.69922 -0.126953 q 0.683594 0.0292969 0.683594 0.458984 q -0.292969 0.634766 -1.2207 0.732422 q -0.742188 0.0683594 -1.41602 0.0878906 l -0.039063 0.9375 q 0.0585938 0.673828 0.595703 0.673828 q 2.1875 -0.107422 2.67578 -0.205078 q 0.214844 -0.00976563 0.214844 0.126953 q 0 0.771484 -2.59766 1.39648 q -0.390625 0.0878906 -0.761719 0.0878906 q -1.44531 0 -1.44531 -1.44531 q 0 -0.576172 0.214844 -1.73828 q -0.683594 -0.195313 -0.683594 -0.498047 q 0 -0.214844 0.849609 -0.351563 q 0.253906 -1.2793 0.556641 -2.16797 l -0.048828 0 q -0.976563 -0.0878906 -0.976563 -0.46875 q 0.0585938 -0.615234 3.32031 -0.810547 Z"/></g>
			</g>
		</svg>
	